<?xml version="1.0" encoding="UTF-8" ?>
<!DOCTYPE svg PUBLIC "-//W3C//DTD SVG 1.1//EN" "http://www.w3.org/Graphics/SVG/1.1/DTD/svg11.dtd">
<svg width="500pt" height="120pt" viewBox="0 0 500 120" version="1.1" xmlns="http://www.w3.org/2000/svg">
<g id="#ffffffff">
<path fill="#ffffff" opacity="1.00" d=" M 395.04 26.79 C 404.97 25.11 415.38 24.67 425.08 27.85 C 440.59 33.24 453.39 44.02 468.02 51.23 C 472.01 52.93 475.99 54.67 480.12 55.99 C 481.45 56.31 482.78 56.59 484.12 56.87 C 487.37 57.54 490.69 57.75 493.96 58.38 C 481.19 67.00 468.66 76.08 454.67 82.70 C 448.88 85.43 443.05 88.12 436.87 89.83 C 435.51 90.28 434.14 90.61 432.77 90.96 C 428.60 92.34 424.23 92.74 419.88 93.01 C 413.82 92.58 407.72 92.56 401.78 91.14 C 400.23 90.68 398.64 90.39 397.09 89.98 C 393.52 89.12 390.12 87.74 386.81 86.17 C 377.82 81.95 369.48 74.81 366.80 64.91 C 364.65 58.85 366.24 52.30 368.71 46.61 C 373.92 37.88 382.08 30.49 392.12 28.05 C 393.09 27.63 394.06 27.21 395.04 26.79 Z" />
<path fill="#ffffff" opacity="1.00" d=" M 207.78 33.36 C 213.46 32.88 219.21 33.95 224.83 32.85 C 227.28 32.80 229.74 32.77 232.19 33.08 C 232.87 33.00 234.25 32.84 234.94 32.75 C 236.56 33.31 238.27 33.21 239.94 33.02 C 253.00 32.31 266.14 32.73 279.22 32.59 C 277.56 34.47 275.34 36.14 274.85 38.75 C 272.53 50.81 272.16 63.22 273.82 75.39 C 275.02 78.55 275.77 81.94 278.50 84.22 C 257.07 82.88 235.51 84.32 214.11 82.87 C 210.03 82.61 205.97 83.20 201.90 83.12 C 197.03 82.09 192.00 83.11 187.07 82.57 C 183.37 82.02 179.57 82.75 175.91 81.89 C 171.62 82.53 167.33 81.41 163.03 81.53 C 158.96 81.64 154.90 81.26 150.84 81.10 C 145.57 80.33 140.21 80.59 134.91 80.06 C 131.67 79.50 128.37 79.66 125.10 79.47 C 120.12 79.16 115.17 78.28 110.17 78.44 L 110.47 77.88 C 106.23 77.88 102.01 77.36 97.78 77.11 C 91.27 76.23 84.65 75.95 78.16 74.86 C 72.89 74.77 67.76 73.30 62.48 73.28 L 62.53 72.82 C 47.39 71.40 32.09 69.39 17.74 64.13 C 14.55 62.63 11.09 61.41 8.63 58.75 C 8.31 56.63 8.16 54.38 9.83 52.77 C 10.82 52.50 11.81 52.20 12.77 51.86 C 13.27 51.61 14.27 51.12 14.77 50.87 C 17.11 49.68 19.59 48.80 22.16 48.23 C 23.72 47.71 25.35 47.40 26.96 47.05 C 33.42 45.15 40.22 44.99 46.82 43.85 C 54.84 42.96 62.89 42.50 70.91 41.71 C 74.57 41.32 78.35 41.65 81.91 40.59 C 84.61 40.39 87.33 40.34 90.00 39.88 C 98.65 39.18 107.28 38.64 115.93 38.11 C 120.69 36.99 125.71 38.01 130.40 36.57 C 130.49 36.84 130.67 37.39 130.76 37.66 C 132.37 35.93 134.97 36.81 137.04 36.45 C 141.04 36.46 145.08 35.19 149.04 36.17 C 154.89 34.68 161.06 35.95 166.94 34.76 C 173.29 34.41 179.66 34.44 186.02 34.17 C 193.22 33.46 200.54 33.80 207.78 33.36 Z" />
<path fill="#ffffff" opacity="1.00" d=" M 282.90 41.91 C 282.88 37.94 286.30 35.27 288.71 32.57 C 292.78 32.73 296.85 32.96 300.92 32.67 C 298.76 34.91 297.69 37.95 297.22 40.96 C 297.00 46.62 297.08 52.29 297.12 57.95 C 296.58 66.65 295.72 76.10 300.65 83.81 C 297.09 83.72 293.54 83.80 289.99 83.86 C 288.95 84.00 287.92 84.13 286.88 84.24 C 285.54 82.24 283.93 80.34 283.16 78.03 C 280.48 66.13 282.36 53.92 282.90 41.91 Z" />
<path fill="#ffffff" opacity="1.00" d=" M 310.26 35.27 C 312.74 32.11 317.43 32.30 320.95 33.18 C 326.50 33.26 331.93 34.66 337.49 34.73 L 337.38 35.29 C 342.36 35.24 347.25 36.22 352.17 36.88 C 355.36 37.55 358.64 37.47 361.86 37.95 C 360.96 39.95 359.93 41.90 358.71 43.73 C 354.19 55.21 354.57 69.14 362.34 79.16 C 359.20 79.23 356.02 79.33 352.99 80.18 C 347.13 80.35 341.39 81.70 335.53 81.73 L 335.56 82.29 C 328.96 82.44 322.52 83.96 315.97 84.49 C 313.02 83.59 310.04 82.27 308.39 79.51 C 304.70 74.80 306.20 68.51 305.87 63.01 C 305.99 61.68 306.08 60.35 306.13 59.02 C 306.05 56.05 306.18 53.07 306.12 50.10 C 306.21 46.61 305.97 43.04 306.85 39.63 C 307.73 38.00 309.02 36.64 310.26 35.27 Z" />
</g>
</svg>
