<?xml version="1.0" encoding="UTF-8" ?>
<!DOCTYPE svg PUBLIC "-//W3C//DTD SVG 1.1//EN" "http://www.w3.org/Graphics/SVG/1.1/DTD/svg11.dtd">
<svg width="225pt" height="225pt" viewBox="0 0 225 225" version="1.1" xmlns="http://www.w3.org/2000/svg">
<g id="#ffffffff">
<path fill="#ffffff" opacity="1.00" d=" M 84.74 23.72 C 94.51 18.34 105.41 14.43 116.69 14.52 C 125.56 14.73 134.07 17.67 142.09 21.25 C 137.05 25.37 132.07 29.56 127.26 33.94 C 126.06 31.43 124.86 28.92 123.65 26.41 C 116.75 30.26 110.96 35.68 104.56 40.23 C 101.99 40.86 99.22 39.52 96.71 40.65 C 88.88 44.63 83.06 51.34 77.46 57.92 C 76.04 54.82 74.50 51.78 72.89 48.78 C 64.32 54.53 57.00 61.94 52.11 71.07 C 50.71 69.13 49.33 67.16 47.93 65.21 C 46.58 65.84 45.23 66.47 43.88 67.09 C 53.68 49.62 67.16 33.72 84.74 23.72 Z" />
<path fill="#ffffff" opacity="1.00" d=" M 151.94 46.37 C 154.29 33.45 166.80 26.38 178.38 22.84 C 175.94 31.57 172.63 40.50 165.67 46.68 C 161.85 50.29 156.26 47.54 151.94 46.37 Z" />
<path fill="#ffffff" opacity="1.00" d=" M 128.29 57.07 C 124.52 43.94 137.15 33.56 147.09 27.30 C 147.62 37.93 144.30 48.40 138.25 57.08 C 134.92 57.06 131.62 57.06 128.29 57.07 Z" />
<path fill="#ffffff" opacity="1.00" d=" M 105.84 52.72 C 109.10 46.22 114.44 41.16 120.04 36.67 C 120.52 45.89 121.12 55.85 115.88 63.95 C 113.93 68.42 108.32 67.50 104.39 68.56 C 104.22 63.25 104.70 57.89 105.84 52.72 Z" />
<path fill="#ffffff" opacity="1.00" d=" M 81.95 67.00 C 84.75 59.34 91.13 53.90 97.03 48.62 C 98.47 57.85 97.63 67.78 93.06 76.06 C 90.72 80.12 85.43 79.63 81.45 80.63 C 80.91 76.10 79.54 71.23 81.95 67.00 Z" />
<path fill="#ffffff" opacity="1.00" d=" M 173.42 50.21 C 178.60 51.55 183.80 52.96 188.66 55.25 C 184.15 58.10 179.62 61.24 174.32 62.40 C 167.15 65.55 161.26 58.94 154.94 56.77 C 161.67 56.36 168.22 54.69 173.42 50.21 Z" />
<path fill="#ffffff" opacity="1.00" d=" M 57.32 78.34 C 59.64 70.91 64.88 65.01 70.04 59.40 C 71.68 68.79 73.57 79.17 69.01 88.04 C 66.81 92.17 61.44 91.59 57.53 92.62 C 56.85 87.92 55.86 82.98 57.32 78.34 Z" />
<path fill="#ffffff" opacity="1.00" d=" M 142.86 62.15 C 151.88 61.15 159.66 66.88 166.76 71.56 C 158.79 75.14 149.60 77.17 140.98 75.10 C 137.70 73.65 131.11 72.19 133.27 67.30 C 135.38 64.17 139.48 63.27 142.86 62.15 Z" />
<path fill="#ffffff" opacity="1.00" d=" M 175.76 70.08 C 177.86 69.30 179.96 68.53 182.06 67.77 C 182.63 75.86 182.54 83.96 182.20 92.06 C 181.85 95.47 184.96 97.74 186.63 100.33 C 193.78 108.15 198.36 117.90 200.99 128.09 C 195.32 128.98 189.63 129.69 183.93 130.28 C 186.58 141.68 190.69 153.67 187.49 165.41 C 186.55 168.92 184.28 172.73 180.38 173.33 C 162.29 175.33 144.00 174.32 126.00 171.93 C 116.70 170.63 107.03 167.68 100.44 160.62 C 98.08 157.33 96.36 153.64 94.47 150.08 C 92.17 150.73 89.87 151.38 87.58 152.05 C 90.93 160.62 96.30 169.04 104.77 173.22 C 115.73 178.63 128.24 179.56 140.23 180.34 C 132.46 190.03 125.92 201.06 125.43 213.87 C 99.65 216.96 73.60 211.24 50.48 199.81 C 55.38 189.41 61.02 179.38 65.98 169.02 C 54.77 152.29 44.81 134.48 38.61 115.24 C 49.22 126.66 65.41 130.42 80.46 128.35 C 79.56 124.63 78.41 120.97 77.08 117.38 C 85.83 117.80 94.64 117.96 103.31 116.48 C 102.31 113.47 101.29 110.47 100.23 107.48 C 108.58 107.68 116.99 107.33 125.13 105.37 C 123.90 102.06 122.64 98.75 121.35 95.46 C 130.60 95.36 139.77 93.50 148.25 89.82 C 147.54 87.75 146.82 85.68 146.08 83.62 C 157.34 83.07 168.52 80.46 177.79 73.82 C 177.11 72.57 176.43 71.33 175.76 70.08 Z" />
<path fill="#ffffff" opacity="1.00" d=" M 104.10 77.14 C 109.15 75.76 114.10 73.54 119.34 73.05 C 126.99 74.69 132.70 80.86 138.39 85.82 C 130.72 87.07 122.53 89.22 115.04 85.92 C 110.87 83.74 107.23 80.63 104.10 77.14 Z" />
<path fill="#ffffff" opacity="1.00" d=" M 45.60 76.25 C 47.17 84.16 49.82 92.90 46.70 100.71 C 45.46 104.41 40.73 104.73 37.81 106.10 C 33.79 95.54 39.30 84.63 45.60 76.25 Z" />
<path fill="#ffffff" opacity="1.00" d=" M 83.53 88.32 C 88.53 87.53 93.38 85.88 97.58 83.01 C 104.80 87.27 110.63 93.41 115.54 100.12 C 103.80 100.76 90.73 98.57 83.53 88.32 Z" />
<path fill="#ffffff" opacity="1.00" d=" M 62.57 100.17 C 67.01 97.99 71.37 95.65 75.50 92.91 C 82.49 97.92 88.82 103.91 93.71 111.01 C 82.67 111.45 69.68 109.61 62.57 100.17 Z" />
<path fill="#ffffff" opacity="1.00" d=" M 45.71 112.33 C 48.32 109.73 50.92 107.11 53.47 104.45 C 60.27 109.10 67.21 114.32 70.73 122.01 C 61.57 121.35 53.16 117.52 45.71 112.33 Z" />
<path fill="#ffffff" opacity="1.00" d=" M 16.80 117.93 C 21.79 115.05 26.32 110.98 31.87 109.20 C 34.48 110.29 36.65 112.18 38.77 114.02 C 32.92 117.77 27.09 121.56 21.11 125.12 C 19.67 122.72 18.23 120.33 16.80 117.93 Z" />
</g>
</svg>
