<?xml version="1.0" encoding="UTF-8" ?>
<!DOCTYPE svg PUBLIC "-//W3C//DTD SVG 1.1//EN" "http://www.w3.org/Graphics/SVG/1.1/DTD/svg11.dtd">
<svg width="512pt" height="512pt" viewBox="0 0 512 512" version="1.1" xmlns="http://www.w3.org/2000/svg">
<g id="#ffffffff">
<path fill="#ffffff" opacity="1.00" d=" M 314.87 87.81 C 317.16 81.50 323.24 76.81 329.91 76.12 C 335.29 75.45 340.88 77.44 344.67 81.31 C 398.52 135.12 452.34 188.96 506.16 242.80 C 509.61 246.00 511.75 250.48 512.00 255.19 L 512.00 257.62 C 511.44 261.75 509.69 265.76 506.67 268.69 C 452.86 322.55 399.01 376.36 345.18 430.20 C 342.03 433.52 337.67 435.73 333.07 435.96 C 325.55 436.51 317.99 431.86 315.16 424.87 C 312.21 418.01 313.99 409.50 319.41 404.37 C 362.87 360.98 406.34 317.61 449.79 274.22 C 305.86 274.16 161.93 274.24 18.00 274.18 C 8.85 274.36 0.84 266.63 0.00 257.64 L 0.00 253.89 C 0.98 245.01 9.00 237.56 18.02 237.81 C 161.95 237.78 305.88 237.82 449.81 237.79 C 406.24 194.16 362.61 150.59 319.02 106.97 C 314.02 102.13 312.42 94.29 314.87 87.81 Z" />
</g>
</svg>
