<?xml version="1.0" encoding="UTF-8" ?>
<!DOCTYPE svg PUBLIC "-//W3C//DTD SVG 1.1//EN" "http://www.w3.org/Graphics/SVG/1.1/DTD/svg11.dtd">
<svg width="512pt" height="512pt" viewBox="0 0 512 512" version="1.1" xmlns="http://www.w3.org/2000/svg">
<g id="#ffffffff">
<path fill="#ffffff" opacity="1.00" d=" M 132.19 26.12 C 137.44 25.65 142.72 25.90 147.98 25.84 C 222.67 25.81 297.35 25.84 372.04 25.82 C 386.65 25.34 401.32 31.06 411.85 41.17 C 422.98 51.56 429.62 66.70 429.40 81.96 C 429.71 98.25 422.35 114.45 410.06 125.10 C 397.63 135.93 380.21 141.12 363.94 138.10 C 354.78 136.74 346.34 132.57 338.70 127.50 C 293.13 127.36 247.56 127.49 201.99 127.43 C 192.50 127.57 182.98 127.21 173.51 127.59 C 161.24 135.84 146.04 140.78 131.21 138.29 C 116.15 136.46 102.10 127.90 93.29 115.58 C 86.47 106.16 82.59 94.59 82.62 82.95 C 82.02 64.97 91.04 47.14 105.57 36.63 C 113.35 30.89 122.63 27.37 132.19 26.12 M 131.36 48.57 C 118.94 51.22 108.69 61.55 105.96 73.92 C 102.20 88.31 109.04 104.68 122.05 111.95 C 132.87 118.27 147.23 117.75 157.62 110.76 C 171.55 102.05 177.13 82.71 170.06 67.91 C 163.78 53.38 146.75 44.93 131.36 48.57 M 365.45 48.58 C 354.40 51.10 344.90 59.39 341.00 70.03 C 335.48 84.27 340.84 101.79 353.61 110.27 C 363.25 117.15 376.60 118.33 387.32 113.34 C 396.18 109.36 403.16 101.44 405.98 92.15 C 410.09 79.54 405.81 64.86 395.77 56.25 C 387.67 48.91 376.03 46.29 365.45 48.58 M 186.15 49.82 C 186.21 54.18 186.08 58.54 186.18 62.89 C 232.72 62.96 279.26 62.95 325.80 62.90 C 325.90 58.54 325.77 54.18 325.85 49.82 C 279.28 49.75 232.71 49.75 186.15 49.82 M 186.20 74.07 C 186.10 78.39 186.15 82.71 186.14 87.04 C 232.71 87.07 279.28 87.06 325.84 87.04 C 325.84 82.72 325.87 78.39 325.79 74.07 C 279.26 74.00 232.73 74.00 186.20 74.07 M 186.19 98.24 C 186.10 102.79 186.12 107.35 186.18 111.90 C 232.72 112.01 279.27 111.96 325.81 111.93 C 325.85 107.36 325.90 102.79 325.78 98.23 C 279.25 98.16 232.72 98.15 186.19 98.24 Z" />
<path fill="#ffffff" opacity="1.00" d=" M 136.22 69.09 C 145.39 66.85 154.43 76.46 151.62 85.46 C 149.84 93.30 140.13 97.74 133.07 93.87 C 126.37 90.80 123.48 81.73 127.47 75.46 C 129.33 72.23 132.64 70.01 136.22 69.09 Z" />
<path fill="#ffffff" opacity="1.00" d=" M 370.27 69.10 C 377.74 67.30 386.13 73.23 386.26 81.05 C 387.23 88.50 380.45 95.76 372.95 95.20 C 364.63 95.59 357.91 86.47 360.37 78.61 C 361.61 73.91 365.56 70.22 370.27 69.10 Z" />
<path fill="#ffffff" opacity="1.00" d=" M 164.39 138.61 C 167.63 136.86 170.67 134.75 173.83 132.90 C 228.85 132.77 283.88 132.85 338.90 132.86 C 341.60 135.13 344.72 136.81 347.75 138.59 C 347.94 223.26 347.77 307.93 347.83 392.60 C 286.60 392.54 225.38 392.58 164.15 392.58 C 164.12 309.73 164.16 226.88 164.14 144.03 C 164.22 142.23 163.89 140.36 164.39 138.61 M 183.83 147.95 C 183.84 224.29 183.81 300.63 183.85 376.97 C 190.19 376.99 196.54 377.01 202.88 376.96 C 202.98 300.63 202.89 224.29 202.93 147.96 C 196.56 147.93 190.19 147.94 183.83 147.95 M 226.00 147.98 C 226.00 224.31 226.00 300.65 226.00 376.99 C 232.17 376.98 238.34 377.00 244.51 376.96 C 244.63 300.64 244.51 224.31 244.57 147.98 C 238.38 147.97 232.19 147.98 226.00 147.98 M 267.41 147.99 C 267.44 224.31 267.39 300.64 267.44 376.96 C 273.85 377.02 280.27 376.98 286.68 376.96 C 286.75 300.64 286.68 224.31 286.72 147.99 C 280.28 147.97 273.85 147.97 267.41 147.99 M 309.09 147.96 C 309.05 224.29 309.07 300.63 309.07 376.97 C 315.43 377.02 321.78 376.95 328.13 376.99 C 328.15 300.64 328.14 224.30 328.14 147.95 C 321.79 147.95 315.44 147.93 309.09 147.96 Z" />
<path fill="#ffffff" opacity="1.00" d=" M 147.41 398.36 C 219.79 398.34 292.18 398.37 364.56 398.35 C 364.55 405.64 364.61 412.94 364.56 420.24 C 292.18 420.27 219.80 420.26 147.42 420.25 C 147.37 412.95 147.42 405.66 147.41 398.36 Z" />
<path fill="#ffffff" opacity="1.00" d=" M 128.00 426.00 C 213.44 425.99 298.88 425.99 384.32 426.00 C 384.35 433.51 384.32 441.03 384.32 448.54 C 298.88 448.57 213.45 448.53 128.01 448.56 C 127.98 441.04 127.97 433.52 128.00 426.00 Z" />
<path fill="#ffffff" opacity="1.00" d=" M 111.12 453.90 C 207.69 453.89 304.27 453.89 400.85 453.90 C 400.86 464.65 400.86 475.40 400.85 486.15 C 304.27 486.20 207.69 486.12 111.12 486.19 C 111.11 475.43 111.11 464.66 111.12 453.90 Z" />
</g>
</svg>
