<?xml version="1.0" encoding="UTF-8" ?>
<!DOCTYPE svg PUBLIC "-//W3C//DTD SVG 1.1//EN" "http://www.w3.org/Graphics/SVG/1.1/DTD/svg11.dtd">
<svg width="750pt" height="717pt" viewBox="0 0 750 717" version="1.1" xmlns="http://www.w3.org/2000/svg">
<g id="#000000ff">
<path fill="#000000" opacity="1.00" d=" M 332.09 57.47 C 362.71 48.76 394.65 44.87 426.44 45.72 C 427.27 55.50 427.50 65.30 428.36 75.07 C 428.33 75.90 428.68 76.55 429.39 77.01 C 431.04 66.76 431.91 56.39 433.57 46.14 C 466.34 47.55 498.76 54.79 529.40 66.40 C 527.06 74.49 524.80 82.60 522.60 90.73 C 523.43 90.69 524.01 90.30 524.34 89.57 C 528.20 82.71 531.76 75.68 535.78 68.91 C 559.42 78.49 581.64 91.45 602.31 106.37 C 582.98 108.41 563.98 114.69 547.96 125.81 C 532.66 136.09 520.35 150.38 511.58 166.53 C 475.58 148.24 434.09 140.97 393.99 145.54 C 366.27 148.68 339.15 157.23 314.68 170.64 C 281.08 188.90 252.76 216.63 233.56 249.68 C 211.30 287.75 200.85 332.93 205.48 376.87 C 202.08 378.98 198.81 381.30 195.84 383.99 C 194.95 383.72 194.07 383.46 193.19 383.20 C 193.25 383.92 193.38 385.35 193.45 386.06 C 183.72 395.56 176.61 408.11 175.21 421.77 C 173.35 433.63 177.49 445.22 178.15 456.99 C 179.70 485.23 168.19 513.78 147.61 533.18 C 152.68 515.30 149.88 495.30 139.41 479.87 C 132.80 470.66 127.13 460.73 123.00 450.17 C 121.54 447.82 123.42 445.48 124.08 443.23 C 122.85 443.50 121.63 443.78 120.40 444.06 C 116.05 431.35 112.29 418.39 110.34 405.08 C 109.15 400.75 112.71 397.35 114.20 393.61 C 112.08 393.90 110.04 394.57 108.06 395.39 C 106.29 382.21 105.74 368.92 105.65 355.63 C 109.83 352.48 114.35 349.80 118.51 346.61 C 114.47 345.34 110.22 345.15 106.05 344.69 C 106.57 321.87 110.55 299.28 115.99 277.15 C 128.88 278.50 141.57 281.33 154.44 282.87 C 153.11 281.14 150.89 280.89 148.99 280.21 C 138.68 277.06 128.44 273.70 118.10 270.65 C 125.93 242.09 138.67 215.00 154.30 189.91 C 154.84 190.12 155.91 190.54 156.45 190.75 C 168.26 197.54 179.62 205.16 191.61 211.63 C 191.26 211.17 190.57 210.25 190.22 209.79 C 179.39 201.44 167.77 194.09 157.10 185.53 C 170.93 165.00 186.89 145.90 205.05 129.05 C 211.80 135.63 218.27 142.52 225.31 148.79 C 224.68 145.82 222.39 143.72 220.72 141.32 C 216.85 135.99 212.70 130.86 209.00 125.40 C 219.57 115.90 230.89 107.30 242.49 99.12 C 255.66 115.10 268.64 131.23 281.70 147.29 C 283.26 149.05 284.45 151.53 286.93 152.14 C 274.29 133.02 260.84 114.44 248.25 95.30 C 272.66 79.87 298.99 67.42 326.66 59.06 C 333.45 81.07 340.05 103.15 346.82 125.16 C 347.12 125.47 347.71 126.10 348.01 126.41 C 347.67 122.58 346.51 118.90 345.69 115.16 C 341.17 95.92 336.53 76.72 332.09 57.47 Z" />
<path fill="#000000" opacity="1.00" d=" M 272.57 216.59 C 311.68 175.93 368.57 153.31 424.89 155.59 C 454.83 156.69 484.61 164.55 511.04 178.72 C 503.38 193.89 495.47 208.93 487.83 224.10 C 472.16 216.38 455.48 210.36 438.08 208.18 C 393.80 201.76 346.99 216.57 314.47 247.33 C 289.64 270.47 273.10 302.29 268.42 335.90 C 266.18 350.86 266.46 366.14 268.65 381.09 C 251.78 383.98 234.88 386.80 217.95 389.41 C 215.03 367.24 214.65 344.58 218.68 322.52 C 225.46 282.86 244.53 245.44 272.57 216.59 Z" />
<path fill="#000000" opacity="1.00" d=" M 397.89 221.82 C 439.18 215.27 483.37 229.41 512.73 259.27 C 518.75 264.65 523.77 271.06 528.51 277.56 C 533.37 284.58 538.22 291.70 541.69 299.54 C 554.20 326.56 561.60 355.71 565.57 385.15 C 568.40 400.31 573.55 414.90 577.57 429.76 C 566.59 424.20 555.15 419.48 544.65 413.02 C 544.32 402.74 545.11 392.43 544.30 382.17 C 543.68 377.70 543.30 373.01 540.93 369.06 C 532.84 355.00 518.37 344.57 502.15 342.45 C 480.99 339.73 460.32 346.97 440.67 353.96 C 449.51 366.34 459.17 378.45 471.60 387.42 C 483.20 395.91 497.49 401.36 512.02 400.59 C 516.79 400.86 521.42 399.75 526.08 398.92 C 527.31 400.97 527.61 403.44 528.30 405.71 C 534.83 429.84 541.11 454.03 548.02 478.05 C 553.14 496.49 558.90 514.75 563.65 533.29 C 566.91 545.36 570.45 557.35 573.70 569.43 C 554.84 569.33 536.02 567.22 517.50 563.66 C 505.41 560.84 493.00 559.34 481.16 555.48 C 445.71 545.72 410.76 531.46 381.93 508.19 C 374.72 502.32 367.90 495.94 361.81 488.92 C 357.08 504.73 344.28 517.43 328.96 523.20 C 320.06 526.51 310.44 528.86 300.90 527.58 C 284.50 525.65 268.71 520.15 253.81 513.16 C 249.78 511.10 245.46 509.26 242.31 505.89 C 247.77 498.84 255.37 493.91 261.53 487.52 C 271.89 480.25 280.82 470.41 285.58 458.57 C 290.84 445.42 290.84 430.94 289.91 417.03 C 288.91 394.95 286.15 372.98 283.70 351.04 C 284.47 340.78 285.26 330.45 287.60 320.41 C 295.24 291.07 313.37 264.70 337.76 246.75 C 355.46 233.87 376.13 224.79 397.89 221.82 Z" />
</g>
</svg>
