<?xml version="1.0" encoding="UTF-8" ?>
<!DOCTYPE svg PUBLIC "-//W3C//DTD SVG 1.1//EN" "http://www.w3.org/Graphics/SVG/1.1/DTD/svg11.dtd">
<svg width="1000pt" height="779pt" viewBox="0 0 1000 779" version="1.1" xmlns="http://www.w3.org/2000/svg">
<g id="#ea7f6dff">
<path fill="#ea7f6d" opacity="1.00" d=" M 0.00 0.00 L 0.06 0.00 C 0.05 0.02 0.02 0.05 0.00 0.06 L 0.00 0.00 Z" />
<path fill="#ea7f6d" opacity="1.00" d=" M 165.77 253.28 C 166.24 254.99 166.55 256.74 166.82 258.50 C 168.06 258.57 169.31 258.63 170.55 258.70 C 170.65 259.17 170.84 260.11 170.94 260.58 C 169.49 260.61 168.04 260.65 166.59 260.69 C 166.64 264.94 166.24 269.21 166.64 273.46 C 167.61 274.92 169.80 275.82 169.65 277.84 C 169.74 279.90 167.49 280.74 166.28 282.01 C 166.31 285.02 170.44 286.48 169.46 289.57 C 168.62 290.75 167.54 291.73 166.54 292.77 C 166.50 296.15 166.53 299.54 166.55 302.93 C 169.95 305.74 173.40 308.48 176.77 311.32 C 176.96 332.22 177.33 353.12 177.36 374.02 C 177.23 375.29 177.78 376.43 178.38 377.52 C 170.13 380.20 162.15 383.62 154.32 387.35 C 154.40 362.88 154.72 338.42 154.83 313.96 C 154.30 311.06 157.07 309.59 158.94 308.01 C 161.04 306.29 163.43 304.82 165.09 302.64 C 165.47 299.45 165.56 296.19 165.05 293.02 C 164.04 291.36 162.27 290.12 161.85 288.15 C 163.03 286.09 164.95 284.47 165.57 282.10 C 164.38 280.82 162.12 279.94 162.14 277.93 C 161.71 275.77 164.04 274.90 165.35 273.75 C 165.34 269.45 165.27 265.16 165.24 260.86 C 163.37 260.61 161.51 260.36 159.66 260.03 C 161.41 259.21 163.26 258.66 165.14 258.22 C 165.32 256.57 165.54 254.92 165.77 253.28 Z" />
<path fill="#ea7f6d" opacity="1.00" d=" M 334.18 406.36 C 335.02 406.31 335.87 406.25 336.72 406.21 C 335.92 415.07 337.54 424.27 341.30 432.35 C 341.87 431.03 342.44 429.72 343.01 428.41 C 343.51 430.93 344.21 433.42 345.28 435.78 C 347.30 440.00 346.34 444.81 346.56 449.33 C 347.51 450.03 348.46 450.74 349.42 451.46 C 350.65 456.69 356.36 457.95 360.07 460.95 C 373.86 470.93 380.63 487.82 382.52 504.28 C 363.63 502.77 344.65 502.69 325.72 503.18 C 325.63 508.17 325.61 513.17 325.66 518.17 C 311.25 518.81 296.80 518.44 282.38 518.39 C 283.50 515.11 286.30 513.05 288.50 510.57 C 289.96 506.56 289.21 502.12 290.08 497.97 C 292.64 483.32 300.05 469.01 312.36 460.27 C 314.93 458.45 317.67 456.88 320.39 455.31 C 320.72 453.95 321.05 452.60 321.38 451.25 C 322.54 450.78 323.71 450.32 324.88 449.86 C 325.02 445.41 325.13 440.96 325.21 436.51 C 325.97 435.82 326.73 435.12 327.50 434.44 C 327.73 432.48 327.96 430.52 328.20 428.57 C 328.84 429.87 329.48 431.17 330.12 432.48 C 333.85 425.55 334.80 417.71 335.30 409.99 C 335.26 408.69 334.63 407.54 334.18 406.36 Z" />
<path fill="#ea7f6d" opacity="1.00" d=" M 528.51 419.14 C 526.78 415.00 525.19 410.75 525.54 406.17 C 526.59 408.05 527.63 409.94 528.66 411.85 C 529.61 411.80 530.58 411.75 531.55 411.71 C 534.13 409.11 537.61 408.03 541.18 407.64 C 537.19 410.83 535.22 415.59 533.11 420.08 C 533.77 420.74 534.43 421.41 535.10 422.08 C 535.04 425.61 535.92 429.05 538.53 431.57 C 538.40 433.29 538.29 435.02 538.15 436.76 C 538.94 437.58 539.74 438.42 540.54 439.26 C 540.27 440.75 540.02 442.25 539.79 443.77 C 542.66 440.68 541.12 436.57 540.04 433.08 C 541.76 431.32 543.49 429.47 544.15 427.04 C 544.86 425.66 544.95 423.47 546.85 423.22 C 548.11 427.14 547.41 431.40 548.68 435.35 C 548.77 436.63 548.80 437.93 548.84 439.22 C 548.48 438.22 547.74 436.22 547.38 435.22 C 545.29 438.13 544.28 442.92 548.21 444.82 C 553.95 446.77 559.12 450.11 564.97 451.74 C 566.60 454.44 569.49 455.45 572.45 455.94 C 574.28 460.82 575.49 465.90 577.18 470.84 C 594.12 471.47 611.08 470.95 628.03 471.11 C 637.79 471.04 647.57 471.38 657.33 470.78 C 682.86 470.57 708.40 470.86 733.94 470.63 C 758.11 470.22 782.30 471.04 806.47 470.53 C 808.03 465.46 809.20 460.27 811.06 455.30 C 813.06 455.27 815.06 455.23 817.07 455.19 C 817.14 453.75 817.22 452.32 817.31 450.89 C 819.67 450.77 822.04 450.65 824.41 450.55 C 824.51 449.96 824.72 448.77 824.82 448.18 C 826.07 447.98 827.32 447.78 828.59 447.58 C 830.27 445.33 833.07 445.53 835.59 445.47 C 835.75 444.94 836.07 443.87 836.23 443.34 C 836.81 443.06 837.96 442.51 838.54 442.23 C 837.98 440.16 837.92 437.54 835.59 436.66 C 835.12 437.81 834.65 438.96 834.19 440.12 C 834.10 436.62 834.94 433.24 836.29 430.04 C 834.80 427.57 835.70 424.94 837.14 422.71 C 838.81 424.48 839.27 426.88 839.99 429.13 C 840.89 430.64 842.51 431.57 843.51 433.05 C 842.89 436.14 841.10 439.12 841.81 442.37 C 842.42 442.61 843.62 443.09 844.22 443.33 C 843.85 441.95 842.62 440.65 842.94 439.18 C 843.76 438.34 844.63 437.54 845.55 436.79 C 845.22 435.12 844.87 433.45 844.55 431.79 C 845.94 430.01 848.21 428.49 848.11 425.98 C 848.24 424.38 848.25 422.78 848.29 421.19 C 848.98 421.09 850.34 420.88 851.02 420.78 C 848.91 417.82 847.57 414.45 846.05 411.19 C 844.85 409.96 843.34 409.14 841.96 408.17 C 845.53 407.98 849.57 408.28 851.45 411.85 C 852.72 411.77 854.00 411.69 855.30 411.61 C 855.74 410.27 856.21 408.94 856.69 407.62 C 857.19 407.32 858.21 406.73 858.72 406.44 C 857.62 408.93 857.67 411.67 857.10 414.28 C 856.24 416.36 854.92 418.20 853.78 420.13 C 854.21 420.53 855.07 421.34 855.50 421.74 C 855.53 425.78 855.59 429.94 857.10 433.76 C 857.81 435.16 858.62 436.51 859.43 437.87 C 858.78 439.59 858.14 441.32 857.52 443.05 C 861.28 443.07 865.05 443.08 868.83 443.07 C 868.25 440.83 868.45 437.91 865.94 436.88 C 864.32 438.12 863.94 440.25 863.13 442.01 C 861.76 439.05 860.26 435.90 861.20 432.57 C 862.12 430.29 864.11 428.75 865.77 427.03 C 865.35 426.14 864.94 425.26 864.54 424.39 C 865.31 423.27 866.10 422.16 866.88 421.05 C 867.14 422.22 867.42 423.40 867.72 424.58 C 867.35 425.25 866.61 426.61 866.24 427.28 C 866.95 427.56 868.36 428.12 869.06 428.39 L 869.35 428.82 C 869.46 430.03 869.58 431.24 869.72 432.46 C 872.55 429.72 874.52 426.20 877.58 423.69 C 877.52 427.73 877.63 431.86 879.46 435.57 C 877.41 435.82 874.41 434.92 873.20 437.16 C 872.35 439.86 873.03 442.76 873.13 445.54 C 875.73 445.57 878.33 445.62 880.95 445.67 C 881.31 446.19 882.05 447.22 882.42 447.74 C 884.44 447.82 886.48 447.92 888.53 448.02 C 888.62 448.66 888.81 449.95 888.91 450.60 C 891.67 450.67 894.44 450.73 897.21 450.80 C 896.77 452.25 896.35 453.72 895.93 455.19 C 898.32 455.26 900.72 455.35 903.12 455.43 C 900.15 460.13 894.45 463.95 895.33 470.17 C 895.86 470.50 896.91 471.16 897.44 471.49 C 897.49 472.73 897.55 473.98 897.62 475.23 C 898.21 475.45 899.38 475.89 899.97 476.11 C 899.14 476.96 898.31 477.82 897.50 478.69 C 897.51 481.91 897.27 485.16 897.74 488.37 C 898.42 488.64 899.78 489.18 900.46 489.45 C 899.24 491.49 897.45 493.45 897.52 495.98 C 897.46 504.46 897.49 512.95 897.57 521.44 C 898.33 521.51 899.85 521.64 900.61 521.71 C 900.84 530.07 900.64 538.44 900.73 546.80 C 874.72 535.97 848.71 525.12 822.75 514.18 C 819.65 512.42 816.34 514.08 813.42 515.31 C 812.59 513.48 811.78 511.66 810.97 509.84 C 808.86 509.74 806.74 509.65 804.64 509.56 C 803.27 512.80 802.55 516.26 802.91 519.79 C 801.18 520.51 799.44 521.22 797.71 521.94 C 797.56 517.97 798.17 513.50 795.57 510.16 C 793.52 509.47 791.29 509.84 789.18 509.78 C 786.92 514.96 787.28 520.66 787.42 526.18 C 785.74 526.87 784.06 527.57 782.40 528.26 C 782.35 521.98 783.18 515.40 780.33 509.55 C 778.84 509.56 777.35 509.60 775.88 509.66 C 773.65 510.05 772.52 512.10 772.28 514.18 C 771.42 520.25 771.96 526.40 772.22 532.50 C 770.53 533.19 768.84 533.87 767.16 534.57 C 766.47 526.41 768.66 517.75 765.18 510.03 C 762.87 510.08 760.57 510.13 758.27 510.16 C 755.59 519.43 756.73 529.27 757.18 538.77 C 755.33 539.54 753.48 540.29 751.63 541.04 C 751.52 533.33 751.64 525.63 751.63 517.92 C 751.67 515.14 750.83 512.47 749.97 509.86 C 747.70 509.85 745.44 509.84 743.18 509.82 C 742.08 512.75 741.23 515.81 741.36 518.97 C 741.44 527.74 741.44 536.50 741.38 545.27 C 739.73 545.95 738.08 546.63 736.44 547.32 C 736.43 538.54 736.33 529.75 736.46 520.97 C 736.58 517.26 735.81 513.61 734.75 510.08 C 732.30 510.13 729.86 510.18 727.42 510.23 C 725.26 516.26 725.95 522.73 725.92 529.01 C 725.96 536.53 725.68 544.06 726.26 551.58 C 724.52 552.30 722.79 553.03 721.05 553.74 C 721.15 542.48 721.03 531.21 721.14 519.95 C 721.03 516.60 721.17 512.81 718.83 510.11 C 716.67 509.66 714.45 509.91 712.28 509.95 C 711.38 513.22 710.58 516.57 710.64 519.99 C 710.72 530.31 710.74 540.63 710.64 550.95 C 710.53 554.66 711.28 558.32 712.34 561.87 C 714.69 561.84 717.05 561.83 719.41 561.83 C 719.64 560.64 719.86 559.45 720.08 558.26 C 722.14 558.38 724.21 558.50 726.28 558.61 C 727.89 560.73 729.94 562.68 730.72 565.30 C 731.23 569.21 730.75 573.24 731.90 577.07 C 733.13 581.26 732.84 585.68 732.82 590.00 C 732.81 605.68 732.72 621.36 732.84 637.03 C 733.03 640.09 731.95 642.98 730.67 645.69 C 729.52 645.99 728.38 646.30 727.25 646.62 C 727.04 648.11 726.83 649.61 726.65 651.12 C 713.27 651.29 699.89 651.45 686.53 651.04 C 686.44 649.00 686.50 646.94 686.07 644.95 C 685.23 642.31 683.49 639.91 683.70 637.02 C 683.83 628.00 683.59 618.98 683.80 609.96 C 683.67 607.79 685.46 606.34 686.57 604.70 C 685.08 602.36 683.40 599.93 683.71 597.01 C 683.76 585.45 683.75 573.90 683.74 562.34 C 685.40 562.18 687.08 562.03 688.76 561.89 C 691.55 553.54 690.06 544.66 690.41 536.05 C 690.02 527.33 691.57 518.34 688.73 509.89 C 686.26 509.99 683.80 510.09 681.34 510.18 C 680.54 513.47 680.14 516.84 679.99 520.24 C 678.43 520.22 676.88 520.22 675.34 520.23 C 675.24 516.73 674.62 513.26 673.19 510.06 C 670.88 510.10 668.58 510.13 666.28 510.16 C 665.31 513.44 664.71 516.82 664.48 520.24 C 663.14 520.23 661.80 520.24 660.48 520.25 C 660.04 516.77 660.34 512.78 657.89 509.96 C 655.78 509.52 653.34 509.14 651.38 510.21 C 648.77 512.82 649.06 516.84 648.49 520.23 C 647.35 520.22 646.21 520.22 645.08 520.22 C 644.54 516.71 643.81 513.23 642.90 509.80 C 640.48 509.74 638.07 509.67 635.66 509.61 C 634.38 513.02 633.74 516.61 633.51 520.24 C 632.17 520.24 630.84 520.23 629.52 520.24 C 629.29 516.61 628.64 513.00 627.30 509.61 C 624.90 509.66 622.50 509.72 620.11 509.76 C 619.19 513.19 618.61 516.70 618.30 520.24 C 617.05 520.23 615.80 520.23 614.56 520.24 C 614.24 516.57 613.48 512.96 612.10 509.55 C 609.90 509.73 607.54 509.32 605.47 510.18 C 602.88 512.81 603.13 516.84 602.47 520.23 C 601.33 520.22 600.20 520.22 599.07 520.23 C 598.52 516.72 597.79 513.25 596.89 509.83 C 594.48 509.75 592.08 509.66 589.68 509.57 C 588.40 513.00 587.73 516.60 587.46 520.25 C 586.15 520.24 584.84 520.24 583.53 520.25 C 583.16 516.72 582.60 513.22 581.82 509.77 C 579.25 509.76 576.68 509.75 574.12 509.74 C 573.24 513.19 572.63 516.71 572.28 520.26 C 554.60 520.30 536.91 520.12 519.22 520.34 C 519.23 521.03 519.25 522.39 519.25 523.07 C 520.55 523.24 521.85 523.42 523.15 523.60 C 523.67 530.39 523.54 537.20 523.50 544.01 C 523.63 546.59 522.07 548.75 521.29 551.10 C 522.10 553.36 523.65 555.45 523.51 557.98 C 523.51 570.66 523.42 583.34 523.55 596.03 C 523.82 598.95 522.34 601.52 521.40 604.17 C 522.05 606.78 523.58 609.19 523.52 611.98 C 523.58 619.66 523.37 627.34 523.56 635.03 C 524.01 640.65 519.93 645.40 520.69 651.11 C 511.14 651.38 501.58 651.25 492.02 651.19 C 491.98 620.78 491.99 590.36 492.02 559.95 C 491.91 555.89 492.54 551.64 491.12 547.74 C 488.98 543.10 485.40 539.33 481.78 535.80 C 482.26 531.38 482.41 526.93 482.36 522.48 C 483.48 522.03 484.61 521.58 485.75 521.13 C 486.20 513.43 486.18 505.70 486.07 497.98 C 486.14 494.83 484.31 492.17 482.81 489.55 C 483.82 489.15 484.84 488.76 485.86 488.38 C 486.11 484.19 486.84 479.45 483.57 476.18 C 484.01 475.92 484.90 475.40 485.35 475.14 C 486.38 472.22 488.35 469.31 487.92 466.12 C 486.24 462.19 483.09 459.14 480.67 455.67 C 482.65 455.41 484.65 455.16 486.64 454.92 C 486.85 453.60 487.05 452.29 487.27 450.99 C 489.38 450.82 491.50 450.66 493.62 450.50 C 494.25 449.82 494.89 449.15 495.53 448.48 C 501.70 446.60 508.50 446.05 513.89 442.23 C 512.36 440.28 510.86 438.33 509.40 436.35 C 508.06 436.10 506.72 435.86 505.40 435.63 C 504.83 436.75 504.27 437.89 503.72 439.02 C 505.12 433.99 505.82 428.80 505.74 423.57 C 508.40 426.15 510.83 428.95 512.96 431.98 C 514.10 430.21 515.33 428.50 516.62 426.83 C 516.40 425.82 516.18 424.80 515.96 423.80 C 516.58 422.90 517.21 422.00 517.84 421.11 C 518.25 423.79 517.87 426.90 519.77 429.11 C 520.81 430.75 522.46 432.15 522.88 434.12 C 522.99 437.18 521.56 440.01 520.62 442.86 C 522.30 442.79 524.00 442.74 525.69 442.70 C 524.97 440.52 523.06 438.07 524.96 435.96 C 528.09 430.98 528.35 424.85 528.51 419.14 M 515.51 438.60 C 515.36 440.00 515.22 441.39 515.09 442.80 C 516.81 442.80 518.53 442.81 520.26 442.83 C 519.55 440.84 518.82 438.86 518.10 436.89 C 517.23 437.46 516.37 438.03 515.51 438.60 M 838.88 438.08 C 838.94 439.86 839.04 441.64 839.18 443.43 C 841.70 442.78 841.65 438.32 838.88 438.08 M 871.48 439.58 C 870.25 439.97 868.99 441.67 869.73 442.94 C 871.58 444.26 873.33 440.36 871.48 439.58 M 526.45 443.07 C 528.88 443.10 531.30 443.09 533.74 443.03 C 532.83 441.58 532.20 439.28 530.00 439.86 C 527.74 439.17 527.08 441.45 526.45 443.07 M 849.68 442.79 C 852.05 442.97 854.42 443.08 856.82 443.13 C 856.45 439.02 850.75 439.14 849.68 442.79 M 847.08 441.24 C 845.47 444.18 850.40 441.44 847.08 441.24 M 697.36 509.81 C 696.25 512.40 695.17 515.09 695.36 517.98 C 695.43 529.98 695.40 541.98 695.38 553.99 C 695.26 556.88 696.31 559.61 697.34 562.28 C 699.46 562.20 701.59 562.14 703.73 562.10 C 704.63 559.84 705.72 557.56 705.60 555.06 C 705.62 542.71 705.57 530.37 705.63 518.02 C 705.70 515.24 705.37 512.29 703.58 510.04 C 701.53 509.58 699.42 509.80 697.36 509.81 Z" />
<path fill="#ea7f6d" opacity="1.00" d=" M 166.01 494.00 C 165.94 486.98 170.76 479.27 178.20 478.58 C 178.58 490.48 178.41 502.40 178.64 514.31 L 178.64 514.48 C 174.51 515.63 170.40 516.93 166.14 517.49 C 166.07 509.66 165.95 501.83 166.01 494.00 Z" />
<path fill="#ea7f6d" opacity="1.00" d=" M 153.61 488.32 C 155.49 490.82 156.84 493.75 156.95 496.93 C 157.40 504.65 156.95 512.40 157.18 520.14 C 155.86 520.63 154.54 521.12 153.22 521.62 C 153.19 510.52 153.08 499.41 153.61 488.32 Z" />
<path fill="#ea7f6d" opacity="1.00" d=" M 267.31 494.84 C 267.13 500.16 270.86 504.23 272.10 509.18 C 269.61 506.81 267.29 504.28 264.95 501.78 C 265.48 501.85 266.55 501.99 267.08 502.05 C 267.25 499.65 267.30 497.24 267.31 494.84 Z" />
<path fill="#ea7f6d" opacity="1.00" d=" M 403.46 495.25 C 403.78 497.21 404.10 499.18 404.46 501.15 C 406.03 503.06 407.42 505.11 408.61 507.28 C 405.48 506.82 402.34 506.39 399.21 505.97 C 400.54 504.23 401.90 502.52 403.26 500.82 C 403.33 498.95 403.39 497.10 403.46 495.25 Z" />
<path fill="#ea7f6d" opacity="1.00" d=" M 247.45 543.84 C 248.76 543.39 250.07 542.94 251.38 542.50 C 252.66 545.14 253.70 547.97 253.62 550.95 C 253.64 559.43 253.76 567.92 253.50 576.41 C 245.48 576.83 237.41 576.29 229.43 577.33 C 229.92 572.73 230.10 568.10 230.62 563.50 C 235.98 563.45 241.35 563.38 246.72 563.34 C 246.91 556.84 246.53 550.31 247.45 543.84 Z" />
<path fill="#ea7f6d" opacity="1.00" d=" M 164.09 555.96 C 164.39 550.23 168.62 543.36 175.02 543.76 C 179.89 544.21 181.86 549.72 182.02 553.95 C 182.29 562.96 182.09 571.99 182.10 581.00 C 176.09 581.63 170.08 582.22 164.06 582.67 C 164.02 573.77 163.85 564.86 164.09 555.96 Z" />
<path fill="#ea7f6d" opacity="1.00" d=" M 310.30 557.06 C 310.35 549.99 316.97 543.98 323.94 544.15 C 330.63 544.02 337.21 549.43 337.58 556.27 C 338.05 563.48 337.71 570.72 337.72 577.94 C 328.57 578.05 319.42 578.05 310.27 577.94 C 310.24 570.98 310.03 564.01 310.30 557.06 Z" />
<path fill="#ea7f6d" opacity="1.00" d=" M 283.39 548.46 C 289.00 545.04 297.71 548.40 298.54 555.19 C 299.09 561.75 298.68 568.35 298.72 574.92 C 294.15 575.04 289.57 575.02 285.00 575.08 C 282.80 570.42 280.78 565.66 279.03 560.81 C 277.35 556.36 278.93 550.60 283.39 548.46 Z" />
<path fill="#ea7f6d" opacity="1.00" d=" M 147.09 550.28 C 151.66 549.37 154.52 554.21 154.76 558.17 C 155.47 566.11 155.03 574.10 155.12 582.05 C 155.73 585.41 151.51 584.77 149.42 585.42 C 149.33 577.79 149.50 570.15 149.32 562.53 C 148.05 561.97 146.80 561.38 145.57 560.77 C 145.27 558.75 148.18 559.06 149.30 558.16 C 149.37 555.71 149.42 553.27 149.35 550.83 C 148.78 550.69 147.65 550.42 147.09 550.28 Z" />
<path fill="#ea7f6d" opacity="1.00" d=" M 368.72 565.98 C 368.90 561.73 372.77 557.98 377.05 558.11 C 381.12 557.90 385.16 561.03 385.57 565.16 C 386.11 571.06 385.67 577.01 385.74 582.93 C 380.11 583.23 374.47 583.16 368.83 583.09 C 368.84 577.38 368.56 571.67 368.72 565.98 Z" />
<path fill="#ea7f6d" opacity="1.00" d=" M 396.92 563.85 C 399.15 561.11 403.91 561.27 406.02 564.10 C 408.43 567.16 408.62 571.28 408.66 575.02 C 408.63 581.95 408.65 588.87 408.60 595.80 C 403.79 596.01 398.98 596.01 394.18 595.84 C 393.96 588.90 394.07 581.96 394.02 575.02 C 394.04 571.17 394.32 566.93 396.92 563.85 Z" />
<path fill="#ea7f6d" opacity="1.00" d=" M 418.15 563.19 C 419.82 561.51 422.49 561.69 424.62 562.22 C 428.78 564.93 429.34 570.48 429.35 575.02 C 429.16 581.96 429.40 588.91 429.12 595.85 C 424.35 596.02 419.57 596.02 414.80 595.88 C 414.50 588.93 414.65 581.97 414.62 575.02 C 414.70 570.92 414.90 566.17 418.15 563.19 Z" />
<path fill="#ea7f6d" opacity="1.00" d=" M 437.37 565.32 C 438.65 564.93 439.95 564.61 441.28 564.37 C 441.12 574.88 441.23 585.40 441.18 595.92 C 438.81 595.91 436.44 595.90 434.08 595.88 C 433.98 588.90 433.93 581.92 434.03 574.95 C 434.18 571.56 434.55 567.61 437.37 565.32 Z" />
<path fill="#ea7f6d" opacity="1.00" d=" M 457.32 567.14 C 458.79 569.52 460.25 572.06 460.25 574.96 C 460.53 581.95 460.44 588.95 460.23 595.94 C 459.51 595.92 458.09 595.89 457.38 595.87 C 457.16 594.36 456.96 592.87 456.77 591.37 C 455.74 590.60 454.72 589.83 453.70 589.07 C 453.72 587.39 453.75 585.73 453.77 584.07 C 454.81 583.54 455.85 583.03 456.90 582.52 C 456.86 581.20 456.83 579.89 456.80 578.58 C 455.66 577.52 454.54 576.46 453.41 575.41 C 454.47 574.51 455.61 573.71 456.57 572.70 C 457.03 570.88 457.09 568.98 457.32 567.14 Z" />
<path fill="#ea7f6d" opacity="1.00" d=" M 907.39 568.93 C 913.45 568.50 919.53 568.72 925.61 568.80 C 925.66 570.32 925.74 571.86 925.81 573.40 C 926.68 573.61 928.40 574.01 929.26 574.21 C 929.24 574.90 929.20 576.28 929.18 576.97 C 928.08 577.30 927.01 577.70 925.97 578.14 C 925.72 579.79 925.71 581.46 925.65 583.14 C 926.51 583.21 928.23 583.34 929.09 583.41 C 929.16 585.61 929.25 587.81 929.33 590.02 C 928.11 590.33 926.90 590.64 925.71 590.96 C 925.74 597.38 925.73 603.80 925.71 610.23 C 935.48 614.23 944.48 620.81 949.58 630.25 C 953.23 636.61 955.02 643.92 954.98 651.23 C 940.39 651.30 925.79 651.32 911.21 651.16 C 910.93 649.80 910.69 648.45 910.44 647.10 C 906.98 645.41 905.04 641.85 905.34 638.04 C 905.35 620.02 905.43 602.00 905.31 583.98 C 905.14 578.85 907.53 574.06 907.39 568.93 Z" />
<path fill="#ea7f6d" opacity="1.00" d=" M 465.45 575.63 C 465.53 573.70 466.99 572.55 468.48 571.61 C 469.37 573.65 470.30 575.75 470.35 578.02 C 470.68 584.48 470.46 590.95 470.39 597.42 C 468.58 597.41 466.79 597.41 465.00 597.41 C 465.20 590.15 464.47 582.84 465.45 575.63 Z" />
<path fill="#ea7f6d" opacity="1.00" d=" M 742.02 572.70 C 746.13 572.53 750.24 572.54 754.34 572.93 C 755.33 576.23 756.50 579.56 756.42 583.06 C 756.30 601.38 756.46 619.70 756.39 638.01 C 756.45 640.94 755.08 643.59 753.96 646.21 C 750.01 646.28 746.07 646.28 742.12 646.18 C 740.94 643.59 739.59 640.92 739.72 637.99 C 739.76 619.31 739.78 600.63 739.72 581.95 C 739.69 578.71 741.24 575.78 742.02 572.70 Z" />
<path fill="#ea7f6d" opacity="1.00" d=" M 765.56 572.88 C 769.58 572.54 773.62 572.52 777.66 572.74 C 778.72 575.75 780.22 578.72 780.16 582.00 C 780.11 600.65 780.12 619.31 780.16 637.97 C 780.31 640.90 778.99 643.58 777.80 646.18 C 773.92 646.18 770.02 646.56 766.17 646.01 C 764.96 644.72 764.05 643.21 763.08 641.75 C 763.72 626.18 763.15 610.58 763.36 594.99 C 763.62 587.59 762.19 579.81 765.56 572.88 Z" />
<path fill="#ea7f6d" opacity="1.00" d=" M 789.43 572.76 C 793.44 572.55 797.46 572.54 801.48 572.74 C 802.39 575.78 803.85 578.77 803.80 582.02 C 803.76 600.67 803.76 619.32 803.80 637.98 C 803.89 640.77 802.97 643.53 801.32 645.78 C 797.47 646.88 793.31 646.06 789.35 646.13 C 788.13 643.58 786.74 640.96 786.96 638.04 C 787.00 619.36 787.02 600.67 786.95 581.98 C 786.80 578.71 788.47 575.79 789.43 572.76 Z" />
<path fill="#ea7f6d" opacity="1.00" d=" M 813.05 572.72 C 817.13 572.54 821.23 572.52 825.31 572.94 C 826.35 576.22 827.55 579.55 827.42 583.05 C 827.31 597.70 827.39 612.35 827.38 627.00 C 827.20 633.52 828.46 640.48 824.94 646.38 C 821.00 646.31 817.06 646.24 813.12 646.17 C 809.70 640.68 810.89 634.12 810.76 628.01 C 810.74 612.65 810.78 597.29 810.72 581.94 C 810.65 578.70 811.97 575.70 813.05 572.72 Z" />
<path fill="#ea7f6d" opacity="1.00" d=" M 836.51 572.78 C 840.55 572.56 844.60 572.55 848.64 572.76 C 849.59 575.81 851.27 578.76 851.16 582.06 C 851.09 597.69 851.14 613.33 851.12 628.97 C 851.04 634.76 852.02 640.97 848.78 646.16 C 844.90 646.19 840.99 646.55 837.14 646.02 C 835.20 643.83 834.26 640.88 834.34 637.98 C 834.37 623.64 834.36 609.31 834.37 594.97 C 834.52 587.52 833.36 579.80 836.51 572.78 Z" />
<path fill="#ea7f6d" opacity="1.00" d=" M 860.35 572.73 C 864.39 572.54 868.44 572.56 872.48 572.77 C 873.38 575.80 874.88 578.76 874.82 582.00 C 874.74 600.68 874.77 619.36 874.81 638.05 C 874.96 640.91 873.62 643.50 872.53 646.05 C 868.45 646.34 864.36 646.34 860.28 646.14 C 857.04 640.97 858.11 634.78 858.00 629.01 C 857.96 613.33 858.04 597.66 857.96 581.99 C 857.81 578.71 859.47 575.79 860.35 572.73 Z" />
<path fill="#ea7f6d" opacity="1.00" d=" M 884.09 572.73 C 888.16 572.54 892.25 572.52 896.32 572.87 C 897.34 576.17 898.50 579.51 898.41 583.02 C 898.34 601.35 898.36 619.68 898.38 638.01 C 898.49 640.95 897.09 643.60 895.94 646.22 C 891.99 646.25 888.04 646.26 884.10 646.24 C 882.91 643.62 881.49 640.97 881.62 638.01 C 881.66 623.67 881.58 609.34 881.64 595.00 C 881.89 587.53 880.42 579.64 884.09 572.73 Z" />
<path fill="#ea7f6d" opacity="1.00" d=" M 475.47 574.45 C 477.19 571.85 479.07 575.01 479.12 576.91 C 479.90 584.13 479.34 591.42 479.44 598.67 C 477.77 598.67 476.11 598.67 474.45 598.69 C 474.74 590.64 473.30 582.29 475.47 574.45 Z" />
<path fill="#ea7f6d" opacity="1.00" d=" M 482.04 580.97 C 482.03 579.34 483.33 578.36 484.65 577.72 C 486.86 584.50 485.71 591.71 485.81 598.70 C 484.51 598.72 483.22 598.75 481.94 598.78 C 481.75 592.85 481.39 586.88 482.04 580.97 Z" />
<path fill="#ea7f6d" opacity="1.00" d=" M 488.36 584.94 C 488.23 583.66 488.65 582.50 489.54 581.59 C 489.99 587.44 489.67 593.31 489.84 599.17 C 489.45 599.19 488.67 599.22 488.29 599.24 C 488.41 594.47 488.29 589.70 488.36 584.94 Z" />
<path fill="#ea7f6d" opacity="1.00" d=" M 587.60 591.60 C 593.15 584.82 603.13 582.39 611.24 585.62 C 619.09 588.57 624.69 596.57 624.60 604.98 C 624.68 620.33 624.64 635.68 624.63 651.03 C 610.67 651.49 596.70 651.19 582.73 651.21 C 582.46 636.15 582.70 621.09 582.62 606.04 C 582.50 600.82 584.10 595.53 587.60 591.60 Z" />
<path fill="#ea7f6d" opacity="1.00" d=" M 273.32 609.28 C 278.96 604.92 287.98 605.99 292.29 611.74 C 295.25 615.10 295.45 619.77 295.41 624.03 C 295.29 631.67 295.51 639.32 295.25 646.96 C 286.15 646.91 277.06 647.05 267.97 646.84 C 267.77 638.21 267.89 629.58 267.84 620.96 C 267.66 616.47 269.66 611.94 273.32 609.28 Z" />
<path fill="#ea7f6d" opacity="1.00" d=" M 232.91 610.87 C 237.39 606.44 245.40 606.70 249.70 611.26 C 252.61 613.98 253.65 618.06 253.63 621.93 C 253.67 630.21 253.66 638.49 253.59 646.77 C 245.33 647.10 237.07 646.95 228.81 646.86 C 228.43 638.57 228.71 630.26 228.59 621.97 C 228.45 617.87 229.80 613.65 232.91 610.87 Z" />
<path fill="#ea7f6d" opacity="1.00" d=" M 44.85 651.24 C 43.93 628.65 64.40 607.87 87.03 608.65 C 85.55 613.43 87.76 618.21 87.55 623.04 C 87.38 632.43 87.64 641.82 87.36 651.21 C 73.19 651.29 59.02 651.24 44.85 651.24 Z" />
<path fill="#ea7f6d" opacity="1.00" d=" M 167.91 611.87 C 170.25 609.60 174.16 609.22 176.84 611.10 C 180.74 613.63 182.25 618.54 182.14 622.99 C 182.08 630.93 182.29 638.88 182.02 646.83 C 175.95 647.01 169.87 646.98 163.80 646.87 C 163.43 639.25 163.70 631.62 163.59 624.01 C 163.48 619.63 164.45 614.86 167.91 611.87 Z" />
<path fill="#ea7f6d" opacity="1.00" d=" M 193.24 622.00 C 193.25 616.69 196.85 611.34 202.18 610.18 C 206.65 608.99 211.43 611.38 213.82 615.19 C 215.97 618.35 216.06 622.30 216.04 625.99 C 215.97 632.93 216.04 639.88 215.97 646.83 C 208.41 646.97 200.84 647.06 193.28 646.80 C 193.23 638.53 193.15 630.26 193.24 622.00 Z" />
<path fill="#ea7f6d" opacity="1.00" d=" M 311.77 621.94 C 312.00 615.77 317.83 610.59 323.95 610.76 C 329.75 610.60 335.33 615.19 336.04 620.99 C 336.69 626.95 335.90 632.95 336.44 638.92 C 336.71 641.59 336.44 644.27 335.93 646.90 C 332.58 646.70 328.87 647.62 325.76 646.33 C 322.73 642.18 320.56 637.47 317.82 633.13 C 315.84 629.39 313.05 626.01 311.77 621.94 Z" />
<path fill="#ea7f6d" opacity="1.00" d=" M 543.39 615.38 C 546.67 610.91 553.43 609.83 558.05 612.84 C 561.57 614.84 563.09 619.04 563.01 622.93 C 563.01 632.35 563.03 641.77 562.98 651.19 C 555.70 651.25 548.42 651.38 541.14 651.10 C 540.95 642.72 541.16 634.33 541.01 625.94 C 541.03 622.33 540.88 618.30 543.39 615.38 Z" />
<path fill="#ea7f6d" opacity="1.00" d=" M 648.02 613.86 C 652.45 609.73 660.22 610.36 663.86 615.23 C 666.37 618.21 666.26 622.32 666.29 626.00 C 666.18 634.39 666.33 642.79 666.20 651.19 C 658.92 651.24 651.64 651.45 644.37 651.04 C 644.39 641.69 644.30 632.34 644.35 622.99 C 644.27 619.61 645.27 616.03 648.02 613.86 Z" />
<path fill="#ea7f6d" opacity="1.00" d=" M 145.16 613.72 C 148.04 613.58 151.07 614.85 152.64 617.34 C 154.86 620.42 154.94 624.36 154.97 628.00 C 154.95 634.28 154.99 640.55 154.85 646.83 C 149.79 646.99 144.73 646.97 139.67 646.87 C 139.39 639.57 139.51 632.26 139.51 624.96 C 139.40 620.57 141.63 616.29 145.16 613.72 Z" />
<path fill="#ea7f6d" opacity="1.00" d=" M 347.87 622.92 C 348.20 614.75 358.35 609.99 365.22 613.80 C 368.63 616.01 371.13 619.83 371.09 623.98 C 371.20 631.60 371.15 639.23 371.03 646.85 C 363.32 647.01 355.61 647.00 347.91 646.85 C 347.68 638.88 347.61 630.88 347.87 622.92 Z" />
<path fill="#ea7f6d" opacity="1.00" d=" M 123.27 616.35 C 124.70 613.89 128.55 613.17 130.60 615.27 C 133.72 618.30 134.13 622.94 134.16 627.05 C 134.12 633.64 134.21 640.24 134.03 646.83 C 129.92 647.05 125.81 647.06 121.71 646.87 C 121.35 639.92 121.57 632.96 121.50 626.02 C 121.62 622.76 121.53 619.24 123.27 616.35 Z" />
<path fill="#ea7f6d" opacity="1.00" d=" M 391.69 614.68 C 396.58 615.49 401.52 618.72 402.12 624.01 C 402.65 631.59 402.37 639.22 402.20 646.82 C 398.68 646.91 395.16 647.00 391.65 647.08 C 391.42 636.28 391.39 625.47 391.69 614.68 Z" />
<path fill="#ea7f6d" opacity="1.00" d=" M 107.44 618.60 C 108.50 616.44 111.80 615.54 113.53 617.43 C 116.17 620.25 116.33 624.37 116.40 628.03 C 116.36 634.32 116.49 640.61 116.22 646.90 C 112.95 647.05 109.68 647.04 106.41 646.85 C 106.39 639.55 106.23 632.26 106.41 624.96 C 106.54 622.82 106.53 620.58 107.44 618.60 Z" />
<path fill="#ea7f6d" opacity="1.00" d=" M 417.31 619.31 C 419.37 617.06 423.08 616.54 425.58 618.39 C 428.59 620.51 429.62 624.40 429.63 627.92 C 429.69 634.19 429.63 640.47 429.62 646.74 C 424.55 647.05 419.47 647.08 414.40 646.77 C 414.40 640.50 414.30 634.24 414.35 627.98 C 414.35 624.87 415.00 621.55 417.31 619.31 Z" />
<path fill="#ea7f6d" opacity="1.00" d=" M 436.75 624.77 C 436.91 621.77 439.23 619.81 441.77 618.66 C 442.34 618.85 443.48 619.24 444.05 619.44 C 443.33 619.53 441.89 619.71 441.17 619.80 C 441.21 628.83 441.20 637.86 441.18 646.89 C 439.58 646.85 438.00 646.83 436.41 646.80 C 436.48 639.46 435.90 632.07 436.75 624.77 Z" />
<path fill="#ea7f6d" opacity="1.00" d=" M 465.79 619.74 C 468.36 618.01 470.00 621.84 470.12 623.91 C 470.84 631.54 470.44 639.24 470.34 646.89 C 468.16 646.88 465.98 646.88 463.81 646.88 C 463.52 640.62 463.57 634.35 463.66 628.09 C 463.87 625.25 463.74 621.97 465.79 619.74 Z" />
<path fill="#ea7f6d" opacity="1.00" d=" M 99.25 619.40 C 102.85 619.98 102.90 624.17 103.07 627.02 C 103.20 633.63 103.15 640.24 103.02 646.86 C 101.32 646.85 99.62 646.85 97.92 646.87 C 97.83 637.73 96.75 628.31 99.25 619.40 Z" />
<path fill="#ea7f6d" opacity="1.00" d=" M 474.69 628.06 C 474.95 625.89 474.78 623.00 476.99 621.79 C 479.29 622.90 479.26 625.84 479.50 628.05 C 479.62 634.28 479.40 640.52 479.48 646.76 C 477.91 646.81 476.33 646.85 474.77 646.92 C 474.59 640.63 474.53 634.34 474.69 628.06 Z" />
<path fill="#ea7f6d" opacity="1.00" d=" M 482.15 624.00 C 482.78 624.10 484.05 624.29 484.69 624.39 C 485.75 631.85 485.43 639.42 485.15 646.93 C 483.85 646.87 482.55 646.81 481.26 646.77 C 481.45 639.18 480.46 631.47 482.15 624.00 Z" />
<path fill="#ea7f6d" opacity="1.00" d=" M 487.10 629.96 C 487.03 628.23 487.90 626.72 488.85 625.36 C 490.95 632.32 489.96 639.69 489.91 646.84 C 489.19 646.86 487.75 646.89 487.03 646.90 C 487.04 641.25 486.84 635.60 487.10 629.96 Z" />
</g>
<g id="#f5d6c2ff">
<path fill="#f5d6c2" opacity="1.00" d=" M 0.06 0.00 L 1000.00 0.00 L 1000.00 779.00 L 0.00 779.00 L 0.00 0.06 C 0.02 0.05 0.05 0.02 0.06 0.00 M 404.75 233.91 C 387.40 242.84 370.45 252.88 355.60 265.63 C 347.20 271.80 340.55 279.91 332.99 287.02 C 296.87 326.29 274.75 378.48 272.98 431.92 C 272.68 435.34 272.05 438.72 271.41 442.09 C 258.95 442.30 246.48 442.07 234.02 442.22 C 234.33 438.85 231.31 436.66 229.59 434.16 C 227.30 434.15 225.01 434.13 222.72 434.13 C 217.97 421.84 213.43 409.48 208.74 397.17 C 206.56 391.48 202.84 386.27 197.51 383.16 C 197.52 382.45 197.52 381.02 197.53 380.31 C 195.41 378.06 193.21 375.88 190.98 373.75 C 186.70 374.71 182.49 375.99 178.38 377.52 C 177.78 376.43 177.23 375.29 177.36 374.02 C 177.33 353.12 176.96 332.22 176.77 311.32 C 173.40 308.48 169.95 305.74 166.55 302.93 C 166.53 299.54 166.50 296.15 166.54 292.77 C 167.54 291.73 168.62 290.75 169.46 289.57 C 170.44 286.48 166.31 285.02 166.28 282.01 C 167.49 280.74 169.74 279.90 169.65 277.84 C 169.80 275.82 167.61 274.92 166.64 273.46 C 166.24 269.21 166.64 264.94 166.59 260.69 C 168.04 260.65 169.49 260.61 170.94 260.58 C 170.84 260.11 170.65 259.17 170.55 258.70 C 169.31 258.63 168.06 258.57 166.82 258.50 C 166.55 256.74 166.24 254.99 165.77 253.28 C 165.54 254.92 165.32 256.57 165.14 258.22 C 163.26 258.66 161.41 259.21 159.66 260.03 C 161.51 260.36 163.37 260.61 165.24 260.86 C 165.27 265.16 165.34 269.45 165.35 273.75 C 164.04 274.90 161.71 275.77 162.14 277.93 C 162.12 279.94 164.38 280.82 165.57 282.10 C 164.95 284.47 163.03 286.09 161.85 288.15 C 162.27 290.12 164.04 291.36 165.05 293.02 C 165.56 296.19 165.47 299.45 165.09 302.64 C 163.43 304.82 161.04 306.29 158.94 308.01 C 157.07 309.59 154.30 311.06 154.83 313.96 C 154.72 338.42 154.40 362.88 154.32 387.35 C 141.59 393.64 129.52 401.40 119.03 411.00 C 103.32 425.13 91.91 444.26 88.60 465.26 C 89.54 465.95 90.49 466.63 91.44 467.32 C 91.52 471.35 91.88 475.51 90.55 479.40 C 89.83 482.24 88.33 485.11 88.91 488.11 C 90.91 495.22 89.66 502.69 89.77 509.96 C 88.28 514.90 86.02 519.75 86.26 525.06 C 85.79 530.90 89.07 536.23 88.70 542.06 C 88.63 545.38 88.62 548.70 88.66 552.03 C 89.40 557.02 84.46 560.26 84.00 565.04 C 82.66 569.72 85.17 573.99 87.37 577.90 C 87.42 588.13 88.01 598.47 87.03 608.65 C 64.40 607.87 43.93 628.65 44.85 651.24 C 40.37 651.35 35.85 650.89 31.41 651.55 C 25.82 652.82 22.18 659.00 23.60 664.53 C 24.64 669.66 29.77 673.33 34.96 672.89 C 345.32 672.84 655.68 672.91 966.04 672.86 C 974.26 673.25 979.76 662.70 974.86 656.15 C 970.70 649.18 961.66 651.67 954.98 651.23 C 955.02 643.92 953.23 636.61 949.58 630.25 C 944.48 620.81 935.48 614.23 925.71 610.23 C 925.73 603.80 925.74 597.38 925.71 590.96 C 926.90 590.64 928.11 590.33 929.33 590.02 C 929.25 587.81 929.16 585.61 929.09 583.41 C 928.23 583.34 926.51 583.21 925.65 583.14 C 925.71 581.46 925.72 579.79 925.97 578.14 C 927.01 577.70 928.08 577.30 929.18 576.97 C 929.20 576.28 929.24 574.90 929.26 574.21 C 928.40 574.01 926.68 573.61 925.81 573.40 C 925.74 571.86 925.66 570.32 925.61 568.80 C 919.53 568.72 913.45 568.50 907.39 568.93 C 907.59 566.88 906.56 564.03 909.33 563.39 C 909.36 563.00 909.40 562.23 909.42 561.84 C 910.83 561.22 911.39 559.92 911.76 558.52 C 913.79 558.49 915.84 558.48 917.89 558.48 C 917.93 557.80 918.01 556.44 918.04 555.75 C 919.02 555.74 920.97 555.72 921.94 555.71 C 914.89 552.68 907.81 549.73 900.73 546.80 C 900.64 538.44 900.84 530.07 900.61 521.71 C 899.85 521.64 898.33 521.51 897.57 521.44 C 897.49 512.95 897.46 504.46 897.52 495.98 C 897.45 493.45 899.24 491.49 900.46 489.45 C 899.78 489.18 898.42 488.64 897.74 488.37 C 897.27 485.16 897.51 481.91 897.50 478.69 C 898.31 477.82 899.14 476.96 899.97 476.11 C 899.38 475.89 898.21 475.45 897.62 475.23 C 897.55 473.98 897.49 472.73 897.44 471.49 C 896.91 471.16 895.86 470.50 895.33 470.17 C 894.45 463.95 900.15 460.13 903.12 455.43 C 900.72 455.35 898.32 455.26 895.93 455.19 C 896.35 453.72 896.77 452.25 897.21 450.80 C 894.44 450.73 891.67 450.67 888.91 450.60 C 888.81 449.95 888.62 448.66 888.53 448.02 C 886.48 447.92 884.44 447.82 882.42 447.74 C 882.05 447.22 881.31 446.19 880.95 445.67 C 878.33 445.62 875.73 445.57 873.13 445.54 C 873.03 442.76 872.35 439.86 873.20 437.16 C 874.41 434.92 877.41 435.82 879.46 435.57 C 877.63 431.86 877.52 427.73 877.58 423.69 C 874.52 426.20 872.55 429.72 869.72 432.46 C 869.58 431.24 869.46 430.03 869.35 428.82 L 869.06 428.39 C 868.36 428.12 866.95 427.56 866.24 427.28 C 866.61 426.61 867.35 425.25 867.72 424.58 C 867.42 423.40 867.14 422.22 866.88 421.05 C 866.10 422.16 865.31 423.27 864.54 424.39 C 864.94 425.26 865.35 426.14 865.77 427.03 C 864.11 428.75 862.12 430.29 861.20 432.57 C 859.82 432.96 858.46 433.36 857.10 433.76 C 855.59 429.94 855.53 425.78 855.50 421.74 C 855.07 421.34 854.21 420.53 853.78 420.13 C 854.92 418.20 856.24 416.36 857.10 414.28 C 857.67 411.67 857.62 408.93 858.72 406.44 C 858.21 406.73 857.19 407.32 856.69 407.62 C 856.21 408.94 855.74 410.27 855.30 411.61 C 854.00 411.69 852.72 411.77 851.45 411.85 C 849.57 408.28 845.53 407.98 841.96 408.17 C 843.34 409.14 844.85 409.96 846.05 411.19 C 847.57 414.45 848.91 417.82 851.02 420.78 C 850.34 420.88 848.98 421.09 848.29 421.19 C 848.25 422.78 848.24 424.38 848.11 425.98 C 848.21 428.49 845.94 430.01 844.55 431.79 C 844.87 433.45 845.22 435.12 845.55 436.79 C 844.63 437.54 843.76 438.34 842.94 439.18 C 842.62 440.65 843.85 441.95 844.22 443.33 C 843.62 443.09 842.42 442.61 841.81 442.37 C 841.10 439.12 842.89 436.14 843.51 433.05 C 842.51 431.57 840.89 430.64 839.99 429.13 C 839.27 426.88 838.81 424.48 837.14 422.71 C 835.70 424.94 834.80 427.57 836.29 430.04 C 834.94 433.24 834.10 436.62 834.19 440.12 C 834.65 438.96 835.12 437.81 835.59 436.66 C 837.92 437.54 837.98 440.16 838.54 442.23 C 837.96 442.51 836.81 443.06 836.23 443.34 C 836.07 443.87 835.75 444.94 835.59 445.47 C 833.07 445.53 830.27 445.33 828.59 447.58 C 827.32 447.78 826.07 447.98 824.82 448.18 C 824.72 448.77 824.51 449.96 824.41 450.55 C 822.04 450.65 819.67 450.77 817.31 450.89 C 817.22 452.32 817.14 453.75 817.07 455.19 C 815.06 455.23 813.06 455.27 811.06 455.30 C 809.20 460.27 808.03 465.46 806.47 470.53 C 782.30 471.04 758.11 470.22 733.94 470.63 C 733.88 463.08 734.18 455.52 733.19 448.02 C 733.52 438.64 732.31 429.30 731.63 419.95 C 731.42 414.93 729.78 410.07 729.81 405.03 C 729.69 402.21 730.16 399.18 728.67 396.62 C 727.21 393.75 725.80 390.82 725.30 387.61 C 723.53 376.75 719.69 366.38 715.51 356.25 C 708.66 338.63 699.26 322.07 688.14 306.82 C 684.31 301.03 679.11 296.35 675.17 290.65 C 669.69 284.85 664.94 278.32 658.52 273.48 C 651.54 266.69 643.31 261.41 635.85 255.19 C 628.11 249.80 620.40 244.27 611.80 240.31 C 604.10 235.59 595.76 232.11 587.49 228.56 C 573.66 223.50 559.62 218.73 545.04 216.33 C 497.99 207.27 448.11 213.51 404.75 233.91 Z" />
<path fill="#f5d6c2" opacity="1.00" d=" M 146.69 432.24 C 149.24 431.46 151.79 430.67 154.34 429.88 C 154.34 434.07 154.34 438.26 154.37 442.45 C 151.82 443.24 149.25 443.96 146.66 444.62 C 146.58 440.49 146.59 436.36 146.69 432.24 Z" />
<path fill="#f5d6c2" opacity="1.00" d=" M 112.25 457.38 C 113.92 455.86 115.59 454.33 117.26 452.81 C 117.24 457.13 117.26 461.44 117.21 465.76 C 115.57 466.99 113.94 468.23 112.30 469.48 C 112.24 465.44 112.23 461.41 112.25 457.38 Z" />
<path fill="#f5d6c2" opacity="1.00" d=" M 95.64 490.52 C 95.88 485.66 93.93 479.86 97.83 475.99 C 97.98 479.69 98.18 483.40 97.94 487.11 C 98.06 488.67 96.53 489.49 95.64 490.52 Z" />
<path fill="#f5d6c2" opacity="1.00" d=" M 178.20 478.58 C 183.43 480.26 184.06 486.30 184.16 490.97 C 184.35 498.24 184.18 505.50 184.38 512.77 C 182.47 513.29 180.56 513.80 178.64 514.31 C 178.41 502.40 178.58 490.48 178.20 478.58 Z" />
<path fill="#f5d6c2" opacity="1.00" d=" M 196.36 479.38 C 197.43 483.15 197.63 487.09 197.52 491.00 C 197.36 497.64 197.74 504.29 197.34 510.93 C 196.83 511.10 195.82 511.43 195.32 511.59 C 195.20 503.37 195.30 495.16 195.24 486.94 C 195.18 484.37 195.66 481.84 196.36 479.38 Z" />
<path fill="#f5d6c2" opacity="1.00" d=" M 148.00 489.05 C 149.63 487.80 151.72 488.20 153.61 488.32 C 153.08 499.41 153.19 510.52 153.22 521.62 C 149.61 522.61 146.01 523.65 142.41 524.68 C 142.37 517.08 142.34 509.49 142.37 501.90 C 142.39 497.15 143.88 491.83 148.00 489.05 Z" />
<path fill="#f5d6c2" opacity="1.00" d=" M 128.52 497.61 C 132.03 495.89 134.62 499.99 135.01 503.00 C 136.18 510.69 135.42 518.52 135.59 526.27 C 131.49 528.17 127.39 530.05 123.28 531.92 C 123.26 524.26 123.18 516.60 123.27 508.94 C 123.42 504.75 124.79 499.97 128.52 497.61 Z" />
<path fill="#f5d6c2" opacity="1.00" d=" M 109.83 514.96 C 110.14 511.27 110.43 506.55 114.07 504.54 C 116.87 504.31 117.28 507.76 117.66 509.84 C 118.39 518.13 117.84 526.48 118.00 534.80 C 115.27 536.05 112.52 537.28 109.77 538.50 C 109.78 530.65 109.63 522.80 109.83 514.96 Z" />
<path fill="#f5d6c2" opacity="1.00" d=" M 775.88 509.66 C 777.35 509.60 778.84 509.56 780.33 509.55 C 783.18 515.40 782.35 521.98 782.40 528.26 C 780.41 529.08 778.43 529.90 776.46 530.73 C 775.12 523.77 775.50 516.68 775.88 509.66 Z" />
<path fill="#f5d6c2" opacity="1.00" d=" M 789.18 509.78 C 791.29 509.84 793.52 509.47 795.57 510.16 C 798.17 513.50 797.56 517.97 797.71 521.94 C 794.26 523.33 790.84 524.75 787.42 526.18 C 787.28 520.66 786.92 514.96 789.18 509.78 Z" />
<path fill="#f5d6c2" opacity="1.00" d=" M 802.91 519.79 C 802.55 516.26 803.27 512.80 804.64 509.56 C 806.74 509.65 808.86 509.74 810.97 509.84 C 811.78 511.66 812.59 513.48 813.42 515.31 C 809.93 516.83 806.43 518.33 802.91 519.79 Z" />
<path fill="#f5d6c2" opacity="1.00" d=" M 94.41 529.92 C 94.53 527.29 94.66 524.26 96.97 522.54 C 98.76 530.22 97.76 538.16 97.99 545.97 C 96.79 546.57 95.59 547.18 94.40 547.80 C 94.41 541.84 94.28 535.88 94.41 529.92 Z" />
<path fill="#f5d6c2" opacity="1.00" d=" M 193.21 553.94 C 193.02 550.26 194.81 546.96 196.90 544.08 C 197.17 555.77 198.70 567.42 198.19 579.14 C 196.58 579.23 194.98 579.32 193.37 579.43 C 193.13 570.94 193.31 562.44 193.21 553.94 Z" />
<path fill="#f5d6c2" opacity="1.00" d=" M 140.28 562.93 C 140.33 557.93 142.66 552.85 147.09 550.28 C 147.65 550.42 148.78 550.69 149.35 550.83 C 149.42 553.27 149.37 555.71 149.30 558.16 C 148.18 559.06 145.27 558.75 145.57 560.77 C 146.80 561.38 148.05 561.97 149.32 562.53 C 149.50 570.15 149.33 577.79 149.42 585.42 C 146.37 585.96 143.33 586.54 140.28 587.06 C 140.25 579.02 140.18 570.97 140.28 562.93 Z" />
<path fill="#f5d6c2" opacity="1.00" d=" M 125.25 556.23 C 126.69 554.68 129.37 554.52 130.82 556.16 C 133.18 558.83 133.32 562.63 133.49 566.03 C 133.53 573.40 133.53 580.77 133.44 588.15 C 129.34 588.97 125.24 589.79 121.13 590.58 C 121.13 583.04 121.07 575.50 121.12 567.96 C 121.17 563.78 122.12 559.22 125.25 556.23 Z" />
<path fill="#f5d6c2" opacity="1.00" d=" M 110.12 561.93 C 111.03 560.44 113.41 559.69 114.36 561.58 C 115.87 564.46 115.81 567.82 115.90 570.99 C 115.88 577.69 115.89 584.39 115.85 591.09 C 113.16 592.02 110.46 592.93 107.76 593.82 C 107.75 586.86 107.75 579.91 107.73 572.96 C 107.80 569.20 107.96 565.15 110.12 561.93 Z" />
<path fill="#f5d6c2" opacity="1.00" d=" M 99.13 576.00 C 99.16 572.31 99.65 568.39 102.23 565.53 C 104.35 568.59 104.30 572.40 104.37 575.97 C 104.41 581.94 104.38 587.91 104.36 593.88 C 102.63 594.62 100.90 595.37 99.17 596.13 C 99.09 589.42 99.08 582.71 99.13 576.00 Z" />
<path fill="#f5d6c2" opacity="1.00" d=" M 92.60 579.05 C 92.62 576.80 93.56 574.76 94.63 572.85 C 97.41 580.32 95.56 588.50 96.20 596.29 C 94.99 596.97 93.76 597.65 92.55 598.34 C 92.56 591.91 92.32 585.47 92.60 579.05 Z" />
</g>
<g id="#fbc2afff">
<path fill="#fbc2af" opacity="1.00" d=" M 404.75 233.91 C 448.11 213.51 497.99 207.27 545.04 216.33 C 559.62 218.73 573.66 223.50 587.49 228.56 C 595.76 232.11 604.10 235.59 611.80 240.31 C 620.40 244.27 628.11 249.80 635.85 255.19 C 643.31 261.41 651.54 266.69 658.52 273.48 C 664.94 278.32 669.69 284.85 675.17 290.65 C 679.11 296.35 684.31 301.03 688.14 306.82 C 699.26 322.07 708.66 338.63 715.51 356.25 C 719.69 366.38 723.53 376.75 725.30 387.61 C 725.80 390.82 727.21 393.75 728.67 396.62 C 730.16 399.18 729.69 402.21 729.81 405.03 C 729.78 410.07 731.42 414.93 731.63 419.95 C 732.31 429.30 733.52 438.64 733.19 448.02 C 734.18 455.52 733.88 463.08 733.94 470.63 C 708.40 470.86 682.86 470.57 657.33 470.78 C 657.03 461.83 657.60 452.86 657.15 443.93 C 657.19 441.18 654.66 439.66 652.79 438.15 C 646.79 433.81 640.86 429.39 634.84 425.08 C 632.32 423.15 629.10 422.67 626.02 422.74 C 608.01 422.89 590.00 422.87 572.00 422.76 C 569.15 422.72 566.16 423.04 563.83 424.84 C 558.81 428.39 554.02 432.27 548.68 435.35 C 547.41 431.40 548.11 427.14 546.85 423.22 C 544.95 423.47 544.86 425.66 544.15 427.04 C 543.49 429.47 541.76 431.32 540.04 433.08 C 541.12 436.57 542.66 440.68 539.79 443.77 C 540.02 442.25 540.27 440.75 540.54 439.26 C 539.74 438.42 538.94 437.58 538.15 436.76 C 538.29 435.02 538.40 433.29 538.53 431.57 C 535.92 429.05 535.04 425.61 535.10 422.08 C 534.43 421.41 533.77 420.74 533.11 420.08 C 535.22 415.59 537.19 410.83 541.18 407.64 C 537.61 408.03 534.13 409.11 531.55 411.71 C 530.58 411.75 529.61 411.80 528.66 411.85 C 527.63 409.94 526.59 408.05 525.54 406.17 C 525.19 410.75 526.78 415.00 528.51 419.14 C 528.35 424.85 528.09 430.98 524.96 435.96 C 523.06 438.07 524.97 440.52 525.69 442.70 C 524.00 442.74 522.30 442.79 520.62 442.86 C 521.56 440.01 522.99 437.18 522.88 434.12 C 522.46 432.15 520.81 430.75 519.77 429.11 C 517.87 426.90 518.25 423.79 517.84 421.11 C 517.21 422.00 516.58 422.90 515.96 423.80 C 516.18 424.80 516.40 425.82 516.62 426.83 C 515.33 428.50 514.10 430.21 512.96 431.98 C 510.83 428.95 508.40 426.15 505.74 423.57 C 505.82 428.80 505.12 433.99 503.72 439.02 C 504.27 437.89 504.83 436.75 505.40 435.63 C 506.72 435.86 508.06 436.10 509.40 436.35 C 510.86 438.33 512.36 440.28 513.89 442.23 C 508.50 446.05 501.70 446.60 495.53 448.48 C 494.89 449.15 494.25 449.82 493.62 450.50 C 491.50 450.66 489.38 450.82 487.27 450.99 C 487.05 452.29 486.85 453.60 486.64 454.92 C 484.65 455.16 482.65 455.41 480.67 455.67 C 483.09 459.14 486.24 462.19 487.92 466.12 C 488.35 469.31 486.38 472.22 485.35 475.14 C 484.90 475.40 484.01 475.92 483.57 476.18 C 486.84 479.45 486.11 484.19 485.86 488.38 C 484.84 488.76 483.82 489.15 482.81 489.55 C 484.31 492.17 486.14 494.83 486.07 497.98 C 486.18 505.70 486.20 513.43 485.75 521.13 C 484.61 521.58 483.48 522.03 482.36 522.48 C 482.41 526.93 482.26 531.38 481.78 535.80 C 471.52 526.52 458.74 520.58 445.77 516.11 C 433.70 512.01 421.19 509.28 408.61 507.28 C 407.42 505.11 406.03 503.06 404.46 501.15 C 404.10 499.18 403.78 497.21 403.46 495.25 C 403.39 497.10 403.33 498.95 403.26 500.82 C 401.90 502.52 400.54 504.23 399.21 505.97 C 393.66 505.28 388.09 504.72 382.52 504.28 C 380.63 487.82 373.86 470.93 360.07 460.95 C 356.36 457.95 350.65 456.69 349.42 451.46 C 348.46 450.74 347.51 450.03 346.56 449.33 C 346.34 444.81 347.30 440.00 345.28 435.78 C 344.21 433.42 343.51 430.93 343.01 428.41 C 342.44 429.72 341.87 431.03 341.30 432.35 C 337.54 424.27 335.92 415.07 336.72 406.21 C 335.87 406.25 335.02 406.31 334.18 406.36 C 334.63 407.54 335.26 408.69 335.30 409.99 C 334.80 417.71 333.85 425.55 330.12 432.48 C 329.48 431.17 328.84 429.87 328.20 428.57 C 327.96 430.52 327.73 432.48 327.50 434.44 C 326.73 435.12 325.97 435.82 325.21 436.51 C 325.13 440.96 325.02 445.41 324.88 449.86 C 323.71 450.32 322.54 450.78 321.38 451.25 C 321.05 452.60 320.72 453.95 320.39 455.31 C 317.67 456.88 314.93 458.45 312.36 460.27 C 304.61 454.89 297.78 448.28 289.96 443.01 C 284.13 440.53 277.55 442.23 271.41 442.09 C 272.05 438.72 272.68 435.34 272.98 431.92 C 274.75 378.48 296.87 326.29 332.99 287.02 C 340.55 279.91 347.20 271.80 355.60 265.63 C 370.45 252.88 387.40 242.84 404.75 233.91 Z" />
<path fill="#fbc2af" opacity="1.00" d=" M 857.10 433.76 C 858.46 433.36 859.82 432.96 861.20 432.57 C 860.26 435.90 861.76 439.05 863.13 442.01 C 863.94 440.25 864.32 438.12 865.94 436.88 C 868.45 437.91 868.25 440.83 868.83 443.07 C 865.05 443.08 861.28 443.07 857.52 443.05 C 858.14 441.32 858.78 439.59 859.43 437.87 C 858.62 436.51 857.81 435.16 857.10 433.76 Z" />
<path fill="#fbc2af" opacity="1.00" d=" M 515.51 438.60 C 516.37 438.03 517.23 437.46 518.10 436.89 C 518.82 438.86 519.55 440.84 520.26 442.83 C 518.53 442.81 516.81 442.80 515.09 442.80 C 515.22 441.39 515.36 440.00 515.51 438.60 Z" />
<path fill="#fbc2af" opacity="1.00" d=" M 838.88 438.08 C 841.65 438.32 841.70 442.78 839.18 443.43 C 839.04 441.64 838.94 439.86 838.88 438.08 Z" />
<path fill="#fbc2af" opacity="1.00" d=" M 871.48 439.58 C 873.33 440.36 871.58 444.26 869.73 442.94 C 868.99 441.67 870.25 439.97 871.48 439.58 Z" />
<path fill="#fbc2af" opacity="1.00" d=" M 849.68 442.79 C 850.75 439.14 856.45 439.02 856.82 443.13 C 854.42 443.08 852.05 442.97 849.68 442.79 Z" />
<path fill="#fbc2af" opacity="1.00" d=" M 666.28 510.16 C 668.58 510.13 670.88 510.10 673.19 510.06 C 674.62 513.26 675.24 516.73 675.34 520.23 C 671.71 520.24 668.10 520.24 664.48 520.24 C 664.71 516.82 665.31 513.44 666.28 510.16 Z" />
<path fill="#fbc2af" opacity="1.00" d=" M 681.34 510.18 C 683.80 510.09 686.26 509.99 688.73 509.89 C 691.57 518.34 690.02 527.33 690.41 536.05 C 690.06 544.66 691.55 553.54 688.76 561.89 C 687.08 562.03 685.40 562.18 683.74 562.34 C 683.71 559.44 683.73 556.53 683.81 553.64 C 685.94 553.20 686.67 551.45 687.06 549.52 C 686.24 549.35 684.60 549.03 683.79 548.87 C 683.72 540.39 683.71 531.92 683.79 523.44 C 685.24 523.39 686.71 523.34 688.18 523.30 C 688.15 522.55 688.10 521.04 688.08 520.28 C 685.38 520.26 682.68 520.24 679.99 520.24 C 680.14 516.84 680.54 513.47 681.34 510.18 Z" />
<path fill="#fbc2af" opacity="1.00" d=" M 697.36 509.81 C 699.42 509.80 701.53 509.58 703.58 510.04 C 705.37 512.29 705.70 515.24 705.63 518.02 C 705.57 530.37 705.62 542.71 705.60 555.06 C 705.72 557.56 704.63 559.84 703.73 562.10 C 701.59 562.14 699.46 562.20 697.34 562.28 C 696.31 559.61 695.26 556.88 695.38 553.99 C 695.40 541.98 695.43 529.98 695.36 517.98 C 695.17 515.09 696.25 512.40 697.36 509.81 Z" />
<path fill="#fbc2af" opacity="1.00" d=" M 712.28 509.95 C 714.45 509.91 716.67 509.66 718.83 510.11 C 721.17 512.81 721.03 516.60 721.14 519.95 C 721.03 531.21 721.15 542.48 721.05 553.74 C 719.52 554.34 718.00 554.92 716.48 555.50 C 717.43 555.62 719.32 555.85 720.27 555.97 C 720.22 556.54 720.13 557.69 720.08 558.26 C 719.86 559.45 719.64 560.64 719.41 561.83 C 717.05 561.83 714.69 561.84 712.34 561.87 C 711.28 558.32 710.53 554.66 710.64 550.95 C 710.74 540.63 710.72 530.31 710.64 519.99 C 710.58 516.57 711.38 513.22 712.28 509.95 Z" />
<path fill="#fbc2af" opacity="1.00" d=" M 727.42 510.23 C 729.86 510.18 732.30 510.13 734.75 510.08 C 735.81 513.61 736.58 517.26 736.46 520.97 C 736.33 529.75 736.43 538.54 736.44 547.32 C 733.04 548.73 729.65 550.14 726.26 551.58 C 725.68 544.06 725.96 536.53 725.92 529.01 C 725.95 522.73 725.26 516.26 727.42 510.23 Z" />
<path fill="#fbc2af" opacity="1.00" d=" M 743.18 509.82 C 745.44 509.84 747.70 509.85 749.97 509.86 C 750.83 512.47 751.67 515.14 751.63 517.92 C 751.64 525.63 751.52 533.33 751.63 541.04 C 748.20 542.42 744.79 543.84 741.38 545.27 C 741.44 536.50 741.44 527.74 741.36 518.97 C 741.23 515.81 742.08 512.75 743.18 509.82 Z" />
<path fill="#fbc2af" opacity="1.00" d=" M 758.27 510.16 C 760.57 510.13 762.87 510.08 765.18 510.03 C 768.66 517.75 766.47 526.41 767.16 534.57 C 763.82 535.93 760.50 537.35 757.18 538.77 C 756.73 529.27 755.59 519.43 758.27 510.16 Z" />
<path fill="#fbc2af" opacity="1.00" d=" M 772.28 514.18 C 772.52 512.10 773.65 510.05 775.88 509.66 C 775.50 516.68 775.12 523.77 776.46 530.73 C 775.04 531.32 773.61 531.90 772.22 532.50 C 771.96 526.40 771.42 520.25 772.28 514.18 Z" />
<path fill="#fbc2af" opacity="1.00" d=" M 228.64 549.91 C 228.71 543.08 234.93 536.72 241.90 537.32 C 245.75 537.40 248.70 540.07 251.38 542.50 C 250.07 542.94 248.76 543.39 247.45 543.84 C 246.53 550.31 246.91 556.84 246.72 563.34 C 241.35 563.38 235.98 563.45 230.62 563.50 C 230.10 568.10 229.92 572.73 229.43 577.33 C 228.33 575.41 228.69 573.10 228.61 570.99 C 228.75 563.96 228.51 556.93 228.64 549.91 Z" />
<path fill="#fbc2af" opacity="1.00" d=" M 196.90 544.08 C 199.28 542.37 201.94 540.67 205.02 541.03 C 211.16 541.15 215.59 547.24 215.84 553.01 C 216.14 561.53 215.98 570.06 215.95 578.59 C 210.03 578.82 204.11 579.01 198.19 579.14 C 198.70 567.42 197.17 555.77 196.90 544.08 Z" />
<path fill="#fbc2af" opacity="1.00" d=" M 441.28 564.37 C 443.51 566.73 445.26 569.65 445.26 573.00 C 445.56 580.60 445.31 588.22 445.34 595.83 C 443.95 595.85 442.56 595.88 441.18 595.92 C 441.23 585.40 441.12 574.88 441.28 564.37 Z" />
<path fill="#fbc2af" opacity="1.00" d=" M 452.02 568.86 C 453.15 567.05 455.50 567.41 457.32 567.14 C 457.09 568.98 457.03 570.88 456.57 572.70 C 455.61 573.71 454.47 574.51 453.41 575.41 C 454.54 576.46 455.66 577.52 456.80 578.58 C 456.83 579.89 456.86 581.20 456.90 582.52 C 455.85 583.03 454.81 583.54 453.77 584.07 C 453.75 585.73 453.72 587.39 453.70 589.07 C 454.72 589.83 455.74 590.60 456.77 591.37 C 456.96 592.87 457.16 594.36 457.38 595.87 C 454.92 595.87 452.46 595.86 450.01 595.86 C 449.99 589.92 450.00 583.98 449.96 578.05 C 450.00 574.91 450.09 571.49 452.02 568.86 Z" />
<path fill="#fbc2af" opacity="1.00" d=" M 453.68 619.63 C 455.88 618.15 457.59 621.31 457.49 623.23 C 457.88 631.08 457.50 638.96 457.62 646.83 C 455.55 646.84 453.47 646.86 451.41 646.88 C 451.37 640.22 451.26 633.57 451.46 626.92 C 451.69 624.41 451.76 621.50 453.68 619.63 Z" />
<path fill="#fbc2af" opacity="1.00" d=" M 441.17 619.80 C 441.89 619.71 443.33 619.53 444.05 619.44 C 445.75 621.23 447.13 623.42 447.23 625.97 C 447.81 632.92 447.41 639.90 447.43 646.87 C 445.34 646.87 443.26 646.88 441.18 646.89 C 441.20 637.86 441.21 628.83 441.17 619.80 Z" />
</g>
<g id="#ac4f5aff">
<path fill="#ac4f5a" opacity="1.00" d=" M 178.38 377.52 C 182.49 375.99 186.70 374.71 190.98 373.75 C 193.21 375.88 195.41 378.06 197.53 380.31 C 197.52 381.02 197.52 382.45 197.51 383.16 C 202.84 386.27 206.56 391.48 208.74 397.17 C 213.43 409.48 217.97 421.84 222.72 434.13 C 225.01 434.13 227.30 434.15 229.59 434.16 C 231.31 436.66 234.33 438.85 234.02 442.22 C 234.04 451.17 233.96 460.12 233.97 469.07 C 233.80 473.12 236.88 476.20 237.99 479.90 C 240.58 487.82 241.97 496.07 243.34 504.27 C 250.55 503.64 257.67 501.01 264.95 501.78 C 267.29 504.28 269.61 506.81 272.10 509.18 C 275.15 512.23 278.03 515.46 281.32 518.28 C 281.58 518.31 282.12 518.36 282.38 518.39 C 296.80 518.44 311.25 518.81 325.66 518.17 C 325.61 513.17 325.63 508.17 325.72 503.18 C 344.65 502.69 363.63 502.77 382.52 504.28 C 388.09 504.72 393.66 505.28 399.21 505.97 C 402.34 506.39 405.48 506.82 408.61 507.28 C 421.19 509.28 433.70 512.01 445.77 516.11 C 458.74 520.58 471.52 526.52 481.78 535.80 C 485.40 539.33 488.98 543.10 491.12 547.74 C 492.54 551.64 491.91 555.89 492.02 559.95 C 491.99 590.36 491.98 620.78 492.02 651.19 C 501.58 651.25 511.14 651.38 520.69 651.11 C 519.93 645.40 524.01 640.65 523.56 635.03 C 523.37 627.34 523.58 619.66 523.52 611.98 C 523.58 609.19 522.05 606.78 521.40 604.17 C 522.34 601.52 523.82 598.95 523.55 596.03 C 523.42 583.34 523.51 570.66 523.51 557.98 C 523.65 555.45 522.10 553.36 521.29 551.10 C 522.07 548.75 523.63 546.59 523.50 544.01 C 523.54 537.20 523.67 530.39 523.15 523.60 C 521.85 523.42 520.55 523.24 519.25 523.07 C 519.25 522.39 519.23 521.03 519.22 520.34 C 536.91 520.12 554.60 520.30 572.28 520.26 C 576.03 520.26 579.78 520.25 583.53 520.25 C 584.84 520.24 586.15 520.24 587.46 520.25 C 591.33 520.26 595.20 520.24 599.07 520.23 C 600.20 520.22 601.33 520.22 602.47 520.23 C 606.50 520.25 610.53 520.26 614.56 520.24 C 615.80 520.23 617.05 520.23 618.30 520.24 C 622.04 520.25 625.78 520.25 629.52 520.24 C 630.84 520.23 632.17 520.24 633.51 520.24 C 637.36 520.26 641.22 520.24 645.08 520.22 C 646.21 520.22 647.35 520.22 648.49 520.23 C 652.48 520.26 656.48 520.28 660.48 520.25 C 661.80 520.24 663.14 520.23 664.48 520.24 C 668.10 520.24 671.71 520.24 675.34 520.23 C 676.88 520.22 678.43 520.22 679.99 520.24 C 682.68 520.24 685.38 520.26 688.08 520.28 C 688.10 521.04 688.15 522.55 688.18 523.30 C 686.71 523.34 685.24 523.39 683.79 523.44 C 683.71 531.92 683.72 540.39 683.79 548.87 C 684.60 549.03 686.24 549.35 687.06 549.52 C 686.67 551.45 685.94 553.20 683.81 553.64 C 683.73 556.53 683.71 559.44 683.74 562.34 C 683.75 573.90 683.76 585.45 683.71 597.01 C 683.40 599.93 685.08 602.36 686.57 604.70 C 685.46 606.34 683.67 607.79 683.80 609.96 C 683.59 618.98 683.83 628.00 683.70 637.02 C 683.49 639.91 685.23 642.31 686.07 644.95 C 686.50 646.94 686.44 649.00 686.53 651.04 C 699.89 651.45 713.27 651.29 726.65 651.12 C 726.83 649.61 727.04 648.11 727.25 646.62 C 728.38 646.30 729.52 645.99 730.67 645.69 C 731.95 642.98 733.03 640.09 732.84 637.03 C 732.72 621.36 732.81 605.68 732.82 590.00 C 732.84 585.68 733.13 581.26 731.90 577.07 C 730.75 573.24 731.23 569.21 730.72 565.30 C 729.94 562.68 727.89 560.73 726.28 558.61 C 724.21 558.50 722.14 558.38 720.08 558.26 C 720.13 557.69 720.22 556.54 720.27 555.97 C 719.32 555.85 717.43 555.62 716.48 555.50 C 718.00 554.92 719.52 554.34 721.05 553.74 C 722.79 553.03 724.52 552.30 726.26 551.58 C 729.65 550.14 733.04 548.73 736.44 547.32 C 738.08 546.63 739.73 545.95 741.38 545.27 C 744.79 543.84 748.20 542.42 751.63 541.04 C 753.48 540.29 755.33 539.54 757.18 538.77 C 760.50 537.35 763.82 535.93 767.16 534.57 C 768.84 533.87 770.53 533.19 772.22 532.50 C 773.61 531.90 775.04 531.32 776.46 530.73 C 778.43 529.90 780.41 529.08 782.40 528.26 C 784.06 527.57 785.74 526.87 787.42 526.18 C 790.84 524.75 794.26 523.33 797.71 521.94 C 799.44 521.22 801.18 520.51 802.91 519.79 C 806.43 518.33 809.93 516.83 813.42 515.31 C 816.34 514.08 819.65 512.42 822.75 514.18 C 848.71 525.12 874.72 535.97 900.73 546.80 C 907.81 549.73 914.89 552.68 921.94 555.71 C 920.97 555.72 919.02 555.74 918.04 555.75 C 918.01 556.44 917.93 557.80 917.89 558.48 C 915.84 558.48 913.79 558.49 911.76 558.52 C 911.39 559.92 910.83 561.22 909.42 561.84 C 909.40 562.23 909.36 563.00 909.33 563.39 C 906.56 564.03 907.59 566.88 907.39 568.93 C 907.53 574.06 905.14 578.85 905.31 583.98 C 905.43 602.00 905.35 620.02 905.34 638.04 C 905.04 641.85 906.98 645.41 910.44 647.10 C 910.69 648.45 910.93 649.80 911.21 651.16 C 925.79 651.32 940.39 651.30 954.98 651.23 C 961.66 651.67 970.70 649.18 974.86 656.15 C 979.76 662.70 974.26 673.25 966.04 672.86 C 655.68 672.91 345.32 672.84 34.96 672.89 C 29.77 673.33 24.64 669.66 23.60 664.53 C 22.18 659.00 25.82 652.82 31.41 651.55 C 35.85 650.89 40.37 651.35 44.85 651.24 C 59.02 651.24 73.19 651.29 87.36 651.21 C 87.64 641.82 87.38 632.43 87.55 623.04 C 87.76 618.21 85.55 613.43 87.03 608.65 C 88.01 598.47 87.42 588.13 87.37 577.90 C 85.17 573.99 82.66 569.72 84.00 565.04 C 84.46 560.26 89.40 557.02 88.66 552.03 C 88.62 548.70 88.63 545.38 88.70 542.06 C 89.07 536.23 85.79 530.90 86.26 525.06 C 86.02 519.75 88.28 514.90 89.77 509.96 C 89.66 502.69 90.91 495.22 88.91 488.11 C 88.33 485.11 89.83 482.24 90.55 479.40 C 91.88 475.51 91.52 471.35 91.44 467.32 C 90.49 466.63 89.54 465.95 88.60 465.26 C 91.91 444.26 103.32 425.13 119.03 411.00 C 129.52 401.40 141.59 393.64 154.32 387.35 C 162.15 383.62 170.13 380.20 178.38 377.52 M 146.69 432.24 C 146.59 436.36 146.58 440.49 146.66 444.62 C 149.25 443.96 151.82 443.24 154.37 442.45 C 154.34 438.26 154.34 434.07 154.34 429.88 C 151.79 430.67 149.24 431.46 146.69 432.24 M 112.25 457.38 C 112.23 461.41 112.24 465.44 112.30 469.48 C 113.94 468.23 115.57 466.99 117.21 465.76 C 117.26 461.44 117.24 457.13 117.26 452.81 C 115.59 454.33 113.92 455.86 112.25 457.38 M 202.93 471.73 C 199.80 473.14 197.97 476.15 196.26 478.97 L 196.36 479.38 C 195.66 481.84 195.18 484.37 195.24 486.94 C 195.30 495.16 195.20 503.37 195.32 511.59 C 195.82 511.43 196.83 511.10 197.34 510.93 C 203.93 509.98 210.43 508.51 216.96 507.23 C 216.95 499.46 217.03 491.70 216.92 483.94 C 216.74 480.00 216.42 475.53 213.43 472.61 C 210.70 469.87 206.19 470.17 202.93 471.73 M 95.64 490.52 C 96.53 489.49 98.06 488.67 97.94 487.11 C 98.18 483.40 97.98 479.69 97.83 475.99 C 93.93 479.86 95.88 485.66 95.64 490.52 M 166.01 494.00 C 165.95 501.83 166.07 509.66 166.14 517.49 C 170.40 516.93 174.51 515.63 178.64 514.48 L 178.64 514.31 C 180.56 513.80 182.47 513.29 184.38 512.77 C 184.18 505.50 184.35 498.24 184.16 490.97 C 184.06 486.30 183.43 480.26 178.20 478.58 C 170.76 479.27 165.94 486.98 166.01 494.00 M 148.00 489.05 C 143.88 491.83 142.39 497.15 142.37 501.90 C 142.34 509.49 142.37 517.08 142.41 524.68 C 146.01 523.65 149.61 522.61 153.22 521.62 C 154.54 521.12 155.86 520.63 157.18 520.14 C 156.95 512.40 157.40 504.65 156.95 496.93 C 156.84 493.75 155.49 490.82 153.61 488.32 C 151.72 488.20 149.63 487.80 148.00 489.05 M 128.52 497.61 C 124.79 499.97 123.42 504.75 123.27 508.94 C 123.18 516.60 123.26 524.26 123.28 531.92 C 127.39 530.05 131.49 528.17 135.59 526.27 C 135.42 518.52 136.18 510.69 135.01 503.00 C 134.62 499.99 132.03 495.89 128.52 497.61 M 109.83 514.96 C 109.63 522.80 109.78 530.65 109.77 538.50 C 112.52 537.28 115.27 536.05 118.00 534.80 C 117.84 526.48 118.39 518.13 117.66 509.84 C 117.28 507.76 116.87 504.31 114.07 504.54 C 110.43 506.55 110.14 511.27 109.83 514.96 M 94.41 529.92 C 94.28 535.88 94.41 541.84 94.40 547.80 C 95.59 547.18 96.79 546.57 97.99 545.97 C 97.76 538.16 98.76 530.22 96.97 522.54 C 94.66 524.26 94.53 527.29 94.41 529.92 M 228.64 549.91 C 228.51 556.93 228.75 563.96 228.61 570.99 C 228.69 573.10 228.33 575.41 229.43 577.33 C 237.41 576.29 245.48 576.83 253.50 576.41 C 253.76 567.92 253.64 559.43 253.62 550.95 C 253.70 547.97 252.66 545.14 251.38 542.50 C 248.70 540.07 245.75 537.40 241.90 537.32 C 234.93 536.72 228.71 543.08 228.64 549.91 M 196.90 544.08 C 194.81 546.96 193.02 550.26 193.21 553.94 C 193.31 562.44 193.13 570.94 193.37 579.43 C 194.98 579.32 196.58 579.23 198.19 579.14 C 204.11 579.01 210.03 578.82 215.95 578.59 C 215.98 570.06 216.14 561.53 215.84 553.01 C 215.59 547.24 211.16 541.15 205.02 541.03 C 201.94 540.67 199.28 542.37 196.90 544.08 M 164.09 555.96 C 163.85 564.86 164.02 573.77 164.06 582.67 C 170.08 582.22 176.09 581.63 182.10 581.00 C 182.09 571.99 182.29 562.96 182.02 553.95 C 181.86 549.72 179.89 544.21 175.02 543.76 C 168.62 543.36 164.39 550.23 164.09 555.96 M 310.30 557.06 C 310.03 564.01 310.24 570.98 310.27 577.94 C 319.42 578.05 328.57 578.05 337.72 577.94 C 337.71 570.72 338.05 563.48 337.58 556.27 C 337.21 549.43 330.63 544.02 323.94 544.15 C 316.97 543.98 310.35 549.99 310.30 557.06 M 283.39 548.46 C 278.93 550.60 277.35 556.36 279.03 560.81 C 280.78 565.66 282.80 570.42 285.00 575.08 C 289.57 575.02 294.15 575.04 298.72 574.92 C 298.68 568.35 299.09 561.75 298.54 555.19 C 297.71 548.40 289.00 545.04 283.39 548.46 M 147.09 550.28 C 142.66 552.85 140.33 557.93 140.28 562.93 C 140.18 570.97 140.25 579.02 140.28 587.06 C 143.33 586.54 146.37 585.96 149.42 585.42 C 151.51 584.77 155.73 585.41 155.12 582.05 C 155.03 574.10 155.47 566.11 154.76 558.17 C 154.52 554.21 151.66 549.37 147.09 550.28 M 125.25 556.23 C 122.12 559.22 121.17 563.78 121.12 567.96 C 121.07 575.50 121.13 583.04 121.13 590.58 C 125.24 589.79 129.34 588.97 133.44 588.15 C 133.53 580.77 133.53 573.40 133.49 566.03 C 133.32 562.63 133.18 558.83 130.82 556.16 C 129.37 554.52 126.69 554.68 125.25 556.23 M 368.72 565.98 C 368.56 571.67 368.84 577.38 368.83 583.09 C 374.47 583.16 380.11 583.23 385.74 582.93 C 385.67 577.01 386.11 571.06 385.57 565.16 C 385.16 561.03 381.12 557.90 377.05 558.11 C 372.77 557.98 368.90 561.73 368.72 565.98 M 110.12 561.93 C 107.96 565.15 107.80 569.20 107.73 572.96 C 107.75 579.91 107.75 586.86 107.76 593.82 C 110.46 592.93 113.16 592.02 115.85 591.09 C 115.89 584.39 115.88 577.69 115.90 570.99 C 115.81 567.82 115.87 564.46 114.36 561.58 C 113.41 559.69 111.03 560.44 110.12 561.93 M 396.92 563.85 C 394.32 566.93 394.04 571.17 394.02 575.02 C 394.07 581.96 393.96 588.90 394.18 595.84 C 398.98 596.01 403.79 596.01 408.60 595.80 C 408.65 588.87 408.63 581.95 408.66 575.02 C 408.62 571.28 408.43 567.16 406.02 564.10 C 403.91 561.27 399.15 561.11 396.92 563.85 M 418.15 563.19 C 414.90 566.17 414.70 570.92 414.62 575.02 C 414.65 581.97 414.50 588.93 414.80 595.88 C 419.57 596.02 424.35 596.02 429.12 595.85 C 429.40 588.91 429.16 581.96 429.35 575.02 C 429.34 570.48 428.78 564.93 424.62 562.22 C 422.49 561.69 419.82 561.51 418.15 563.19 M 437.37 565.32 C 434.55 567.61 434.18 571.56 434.03 574.95 C 433.93 581.92 433.98 588.90 434.08 595.88 C 436.44 595.90 438.81 595.91 441.18 595.92 C 442.56 595.88 443.95 595.85 445.34 595.83 C 445.31 588.22 445.56 580.60 445.26 573.00 C 445.26 569.65 443.51 566.73 441.28 564.37 C 439.95 564.61 438.65 564.93 437.37 565.32 M 99.13 576.00 C 99.08 582.71 99.09 589.42 99.17 596.13 C 100.90 595.37 102.63 594.62 104.36 593.88 C 104.38 587.91 104.41 581.94 104.37 575.97 C 104.30 572.40 104.35 568.59 102.23 565.53 C 99.65 568.39 99.16 572.31 99.13 576.00 M 452.02 568.86 C 450.09 571.49 450.00 574.91 449.96 578.05 C 450.00 583.98 449.99 589.92 450.01 595.86 C 452.46 595.86 454.92 595.87 457.38 595.87 C 458.09 595.89 459.51 595.92 460.23 595.94 C 460.44 588.95 460.53 581.95 460.25 574.96 C 460.25 572.06 458.79 569.52 457.32 567.14 C 455.50 567.41 453.15 567.05 452.02 568.86 M 465.45 575.63 C 464.47 582.84 465.20 590.15 465.00 597.41 C 466.79 597.41 468.58 597.41 470.39 597.42 C 470.46 590.95 470.68 584.48 470.35 578.02 C 470.30 575.75 469.37 573.65 468.48 571.61 C 466.99 572.55 465.53 573.70 465.45 575.63 M 742.02 572.70 C 741.24 575.78 739.69 578.71 739.72 581.95 C 739.78 600.63 739.76 619.31 739.72 637.99 C 739.59 640.92 740.94 643.59 742.12 646.18 C 746.07 646.28 750.01 646.28 753.96 646.21 C 755.08 643.59 756.45 640.94 756.39 638.01 C 756.46 619.70 756.30 601.38 756.42 583.06 C 756.50 579.56 755.33 576.23 754.34 572.93 C 750.24 572.54 746.13 572.53 742.02 572.70 M 765.56 572.88 C 762.19 579.81 763.62 587.59 763.36 594.99 C 763.15 610.58 763.72 626.18 763.08 641.75 C 764.05 643.21 764.96 644.72 766.17 646.01 C 770.02 646.56 773.92 646.18 777.80 646.18 C 778.99 643.58 780.31 640.90 780.16 637.97 C 780.12 619.31 780.11 600.65 780.16 582.00 C 780.22 578.72 778.72 575.75 777.66 572.74 C 773.62 572.52 769.58 572.54 765.56 572.88 M 789.43 572.76 C 788.47 575.79 786.80 578.71 786.95 581.98 C 787.02 600.67 787.00 619.36 786.96 638.04 C 786.74 640.96 788.13 643.58 789.35 646.13 C 793.31 646.06 797.47 646.88 801.32 645.78 C 802.97 643.53 803.89 640.77 803.80 637.98 C 803.76 619.32 803.76 600.67 803.80 582.02 C 803.85 578.77 802.39 575.78 801.48 572.74 C 797.46 572.54 793.44 572.55 789.43 572.76 M 813.05 572.72 C 811.97 575.70 810.65 578.70 810.72 581.94 C 810.78 597.29 810.74 612.65 810.76 628.01 C 810.89 634.12 809.70 640.68 813.12 646.17 C 817.06 646.24 821.00 646.31 824.94 646.38 C 828.46 640.48 827.20 633.52 827.38 627.00 C 827.39 612.35 827.31 597.70 827.42 583.05 C 827.55 579.55 826.35 576.22 825.31 572.94 C 821.23 572.52 817.13 572.54 813.05 572.72 M 836.51 572.78 C 833.36 579.80 834.52 587.52 834.37 594.97 C 834.36 609.31 834.37 623.64 834.34 637.98 C 834.26 640.88 835.20 643.83 837.14 646.02 C 840.99 646.55 844.90 646.19 848.78 646.16 C 852.02 640.97 851.04 634.76 851.12 628.97 C 851.14 613.33 851.09 597.69 851.16 582.06 C 851.27 578.76 849.59 575.81 848.64 572.76 C 844.60 572.55 840.55 572.56 836.51 572.78 M 860.35 572.73 C 859.47 575.79 857.81 578.71 857.96 581.99 C 858.04 597.66 857.96 613.33 858.00 629.01 C 858.11 634.78 857.04 640.97 860.28 646.14 C 864.36 646.34 868.45 646.34 872.53 646.05 C 873.62 643.50 874.96 640.91 874.81 638.05 C 874.77 619.36 874.74 600.68 874.82 582.00 C 874.88 578.76 873.38 575.80 872.48 572.77 C 868.44 572.56 864.39 572.54 860.35 572.73 M 884.09 572.73 C 880.42 579.64 881.89 587.53 881.64 595.00 C 881.58 609.34 881.66 623.67 881.62 638.01 C 881.49 640.97 882.91 643.62 884.10 646.24 C 888.04 646.26 891.99 646.25 895.94 646.22 C 897.09 643.60 898.49 640.95 898.38 638.01 C 898.36 619.68 898.34 601.35 898.41 583.02 C 898.50 579.51 897.34 576.17 896.32 572.87 C 892.25 572.52 888.16 572.54 884.09 572.73 M 92.60 579.05 C 92.32 585.47 92.56 591.91 92.55 598.34 C 93.76 597.65 94.99 596.97 96.20 596.29 C 95.56 588.50 97.41 580.32 94.63 572.85 C 93.56 574.76 92.62 576.80 92.60 579.05 M 475.47 574.45 C 473.30 582.29 474.74 590.64 474.45 598.69 C 476.11 598.67 477.77 598.67 479.44 598.67 C 479.34 591.42 479.90 584.13 479.12 576.91 C 479.07 575.01 477.19 571.85 475.47 574.45 M 482.04 580.97 C 481.39 586.88 481.75 592.85 481.94 598.78 C 483.22 598.75 484.51 598.72 485.81 598.70 C 485.71 591.71 486.86 584.50 484.65 577.72 C 483.33 578.36 482.03 579.34 482.04 580.97 M 488.36 584.94 C 488.29 589.70 488.41 594.47 488.29 599.24 C 488.67 599.22 489.45 599.19 489.84 599.17 C 489.67 593.31 489.99 587.44 489.54 581.59 C 488.65 582.50 488.23 583.66 488.36 584.94 M 587.60 591.60 C 584.10 595.53 582.50 600.82 582.62 606.04 C 582.70 621.09 582.46 636.15 582.73 651.21 C 596.70 651.19 610.67 651.49 624.63 651.03 C 624.64 635.68 624.68 620.33 624.60 604.98 C 624.69 596.57 619.09 588.57 611.24 585.62 C 603.13 582.39 593.15 584.82 587.60 591.60 M 273.32 609.28 C 269.66 611.94 267.66 616.47 267.84 620.96 C 267.89 629.58 267.77 638.21 267.97 646.84 C 277.06 647.05 286.15 646.91 295.25 646.96 C 295.51 639.32 295.29 631.67 295.41 624.03 C 295.45 619.77 295.25 615.10 292.29 611.74 C 287.98 605.99 278.96 604.92 273.32 609.28 M 232.91 610.87 C 229.80 613.65 228.45 617.87 228.59 621.97 C 228.71 630.26 228.43 638.57 228.81 646.86 C 237.07 646.95 245.33 647.10 253.59 646.77 C 253.66 638.49 253.67 630.21 253.63 621.93 C 253.65 618.06 252.61 613.98 249.70 611.26 C 245.40 606.70 237.39 606.44 232.91 610.87 M 167.91 611.87 C 164.45 614.86 163.48 619.63 163.59 624.01 C 163.70 631.62 163.43 639.25 163.80 646.87 C 169.87 646.98 175.95 647.01 182.02 646.83 C 182.29 638.88 182.08 630.93 182.14 622.99 C 182.25 618.54 180.74 613.63 176.84 611.10 C 174.16 609.22 170.25 609.60 167.91 611.87 M 193.24 622.00 C 193.15 630.26 193.23 638.53 193.28 646.80 C 200.84 647.06 208.41 646.97 215.97 646.83 C 216.04 639.88 215.97 632.93 216.04 625.99 C 216.06 622.30 215.97 618.35 213.82 615.19 C 211.43 611.38 206.65 608.99 202.18 610.18 C 196.85 611.34 193.25 616.69 193.24 622.00 M 311.77 621.94 C 313.05 626.01 315.84 629.39 317.82 633.13 C 320.56 637.47 322.73 642.18 325.76 646.33 C 328.87 647.62 332.58 646.70 335.93 646.90 C 336.44 644.27 336.71 641.59 336.44 638.92 C 335.90 632.95 336.69 626.95 336.04 620.99 C 335.33 615.19 329.75 610.60 323.95 610.76 C 317.83 610.59 312.00 615.77 311.77 621.94 M 543.39 615.38 C 540.88 618.30 541.03 622.33 541.01 625.94 C 541.16 634.33 540.95 642.72 541.14 651.10 C 548.42 651.38 555.70 651.25 562.98 651.19 C 563.03 641.77 563.01 632.35 563.01 622.93 C 563.09 619.04 561.57 614.84 558.05 612.84 C 553.43 609.83 546.67 610.91 543.39 615.38 M 648.02 613.86 C 645.27 616.03 644.27 619.61 644.35 622.99 C 644.30 632.34 644.39 641.69 644.37 651.04 C 651.64 651.45 658.92 651.24 666.20 651.19 C 666.33 642.79 666.18 634.39 666.29 626.00 C 666.26 622.32 666.37 618.21 663.86 615.23 C 660.22 610.36 652.45 609.73 648.02 613.86 M 145.16 613.72 C 141.63 616.29 139.40 620.57 139.51 624.96 C 139.51 632.26 139.39 639.57 139.67 646.87 C 144.73 646.97 149.79 646.99 154.85 646.83 C 154.99 640.55 154.95 634.28 154.97 628.00 C 154.94 624.36 154.86 620.42 152.64 617.34 C 151.07 614.85 148.04 613.58 145.16 613.72 M 347.87 622.92 C 347.61 630.88 347.68 638.88 347.91 646.85 C 355.61 647.00 363.32 647.01 371.03 646.85 C 371.15 639.23 371.20 631.60 371.09 623.98 C 371.13 619.83 368.63 616.01 365.22 613.80 C 358.35 609.99 348.20 614.75 347.87 622.92 M 123.27 616.35 C 121.53 619.24 121.62 622.76 121.50 626.02 C 121.57 632.96 121.35 639.92 121.71 646.87 C 125.81 647.06 129.92 647.05 134.03 646.83 C 134.21 640.24 134.12 633.64 134.16 627.05 C 134.13 622.94 133.72 618.30 130.60 615.27 C 128.55 613.17 124.70 613.89 123.27 616.35 M 391.69 614.68 C 391.39 625.47 391.42 636.28 391.65 647.08 C 395.16 647.00 398.68 646.91 402.20 646.82 C 402.37 639.22 402.65 631.59 402.12 624.01 C 401.52 618.72 396.58 615.49 391.69 614.68 M 107.44 618.60 C 106.53 620.58 106.54 622.82 106.41 624.96 C 106.23 632.26 106.39 639.55 106.41 646.85 C 109.68 647.04 112.95 647.05 116.22 646.90 C 116.49 640.61 116.36 634.32 116.40 628.03 C 116.33 624.37 116.17 620.25 113.53 617.43 C 111.80 615.54 108.50 616.44 107.44 618.60 M 417.31 619.31 C 415.00 621.55 414.35 624.87 414.35 627.98 C 414.30 634.24 414.40 640.50 414.40 646.77 C 419.47 647.08 424.55 647.05 429.62 646.74 C 429.63 640.47 429.69 634.19 429.63 627.92 C 429.62 624.40 428.59 620.51 425.58 618.39 C 423.08 616.54 419.37 617.06 417.31 619.31 M 436.75 624.77 C 435.90 632.07 436.48 639.46 436.41 646.80 C 438.00 646.83 439.58 646.85 441.18 646.89 C 443.26 646.88 445.34 646.87 447.43 646.87 C 447.41 639.90 447.81 632.92 447.23 625.97 C 447.13 623.42 445.75 621.23 444.05 619.44 C 443.48 619.24 442.34 618.85 441.77 618.66 C 439.23 619.81 436.91 621.77 436.75 624.77 M 453.68 619.63 C 451.76 621.50 451.69 624.41 451.46 626.92 C 451.26 633.57 451.37 640.22 451.41 646.88 C 453.47 646.86 455.55 646.84 457.62 646.83 C 457.50 638.96 457.88 631.08 457.49 623.23 C 457.59 621.31 455.88 618.15 453.68 619.63 M 465.79 619.74 C 463.74 621.97 463.87 625.25 463.66 628.09 C 463.57 634.35 463.52 640.62 463.81 646.88 C 465.98 646.88 468.16 646.88 470.34 646.89 C 470.44 639.24 470.84 631.54 470.12 623.91 C 470.00 621.84 468.36 618.01 465.79 619.74 M 99.25 619.40 C 96.75 628.31 97.83 637.73 97.92 646.87 C 99.62 646.85 101.32 646.85 103.02 646.86 C 103.15 640.24 103.20 633.63 103.07 627.02 C 102.90 624.17 102.85 619.98 99.25 619.40 M 474.69 628.06 C 474.53 634.34 474.59 640.63 474.77 646.92 C 476.33 646.85 477.91 646.81 479.48 646.76 C 479.40 640.52 479.62 634.28 479.50 628.05 C 479.26 625.84 479.29 622.90 476.99 621.79 C 474.78 623.00 474.95 625.89 474.69 628.06 M 482.15 624.00 C 480.46 631.47 481.45 639.18 481.26 646.77 C 482.55 646.81 483.85 646.87 485.15 646.93 C 485.43 639.42 485.75 631.85 484.69 624.39 C 484.05 624.29 482.78 624.10 482.15 624.00 M 487.10 629.96 C 486.84 635.60 487.04 641.25 487.03 646.90 C 487.75 646.89 489.19 646.86 489.91 646.84 C 489.96 639.69 490.95 632.32 488.85 625.36 C 487.90 626.72 487.03 628.23 487.10 629.96 Z" />
</g>
<g id="#f4a895ff">
<path fill="#f4a895" opacity="1.00" d=" M 563.83 424.84 C 566.16 423.04 569.15 422.72 572.00 422.76 C 590.00 422.87 608.01 422.89 626.02 422.74 C 629.10 422.67 632.32 423.15 634.84 425.08 C 640.86 429.39 646.79 433.81 652.79 438.15 C 654.66 439.66 657.19 441.18 657.15 443.93 C 657.60 452.86 657.03 461.83 657.33 470.78 C 647.57 471.38 637.79 471.04 628.03 471.11 C 611.08 470.95 594.12 471.47 577.18 470.84 C 575.49 465.90 574.28 460.82 572.45 455.94 C 569.49 455.45 566.60 454.44 564.97 451.74 C 559.12 450.11 553.95 446.77 548.21 444.82 C 544.28 442.92 545.29 438.13 547.38 435.22 C 547.74 436.22 548.48 438.22 548.84 439.22 C 548.80 437.93 548.77 436.63 548.68 435.35 C 554.02 432.27 558.81 428.39 563.83 424.84 Z" />
<path fill="#f4a895" opacity="1.00" d=" M 526.45 443.07 C 527.08 441.45 527.74 439.17 530.00 439.86 C 532.20 439.28 532.83 441.58 533.74 443.03 C 531.30 443.09 528.88 443.10 526.45 443.07 Z" />
<path fill="#f4a895" opacity="1.00" d=" M 847.08 441.24 C 850.40 441.44 845.47 444.18 847.08 441.24 Z" />
<path fill="#f4a895" opacity="1.00" d=" M 234.02 442.22 C 246.48 442.07 258.95 442.30 271.41 442.09 C 277.55 442.23 284.13 440.53 289.96 443.01 C 297.78 448.28 304.61 454.89 312.36 460.27 C 300.05 469.01 292.64 483.32 290.08 497.97 C 289.21 502.12 289.96 506.56 288.50 510.57 C 286.30 513.05 283.50 515.11 282.38 518.39 C 282.12 518.36 281.58 518.31 281.32 518.28 C 278.03 515.46 275.15 512.23 272.10 509.18 C 270.86 504.23 267.13 500.16 267.31 494.84 C 267.30 497.24 267.25 499.65 267.08 502.05 C 266.55 501.99 265.48 501.85 264.95 501.78 C 257.67 501.01 250.55 503.64 243.34 504.27 C 241.97 496.07 240.58 487.82 237.99 479.90 C 236.88 476.20 233.80 473.12 233.97 469.07 C 233.96 460.12 234.04 451.17 234.02 442.22 Z" />
<path fill="#f4a895" opacity="1.00" d=" M 202.93 471.73 C 206.19 470.17 210.70 469.87 213.43 472.61 C 216.42 475.53 216.74 480.00 216.92 483.94 C 217.03 491.70 216.95 499.46 216.96 507.23 C 210.43 508.51 203.93 509.98 197.34 510.93 C 197.74 504.29 197.36 497.64 197.52 491.00 C 197.63 487.09 197.43 483.15 196.36 479.38 L 196.26 478.97 C 197.97 476.15 199.80 473.14 202.93 471.73 Z" />
<path fill="#f4a895" opacity="1.00" d=" M 574.12 509.74 C 576.68 509.75 579.25 509.76 581.82 509.77 C 582.60 513.22 583.16 516.72 583.53 520.25 C 579.78 520.25 576.03 520.26 572.28 520.26 C 572.63 516.71 573.24 513.19 574.12 509.74 Z" />
<path fill="#f4a895" opacity="1.00" d=" M 589.68 509.57 C 592.08 509.66 594.48 509.75 596.89 509.83 C 597.79 513.25 598.52 516.72 599.07 520.23 C 595.20 520.24 591.33 520.26 587.46 520.25 C 587.73 516.60 588.40 513.00 589.68 509.57 Z" />
<path fill="#f4a895" opacity="1.00" d=" M 605.47 510.18 C 607.54 509.32 609.90 509.73 612.10 509.55 C 613.48 512.96 614.24 516.57 614.56 520.24 C 610.53 520.26 606.50 520.25 602.47 520.23 C 603.13 516.84 602.88 512.81 605.47 510.18 Z" />
<path fill="#f4a895" opacity="1.00" d=" M 620.11 509.76 C 622.50 509.72 624.90 509.66 627.30 509.61 C 628.64 513.00 629.29 516.61 629.52 520.24 C 625.78 520.25 622.04 520.25 618.30 520.24 C 618.61 516.70 619.19 513.19 620.11 509.76 Z" />
<path fill="#f4a895" opacity="1.00" d=" M 635.66 509.61 C 638.07 509.67 640.48 509.74 642.90 509.80 C 643.81 513.23 644.54 516.71 645.08 520.22 C 641.22 520.24 637.36 520.26 633.51 520.24 C 633.74 516.61 634.38 513.02 635.66 509.61 Z" />
<path fill="#f4a895" opacity="1.00" d=" M 651.38 510.21 C 653.34 509.14 655.78 509.52 657.89 509.96 C 660.34 512.78 660.04 516.77 660.48 520.25 C 656.48 520.28 652.48 520.26 648.49 520.23 C 649.06 516.84 648.77 512.82 651.38 510.21 Z" />
</g>
</svg>
