<?xml version="1.0" encoding="UTF-8" ?>
<!DOCTYPE svg PUBLIC "-//W3C//DTD SVG 1.1//EN" "http://www.w3.org/Graphics/SVG/1.1/DTD/svg11.dtd">
<svg width="512pt" height="512pt" viewBox="0 0 512 512" version="1.1" xmlns="http://www.w3.org/2000/svg">
<g id="#787878ff">
<path fill="#787878" opacity="1.00" d=" M 136.60 0.00 L 145.41 0.00 C 150.13 2.36 155.47 3.75 159.07 7.92 C 236.09 84.91 313.11 161.90 390.10 238.92 C 393.44 242.02 394.93 246.45 396.19 250.70 C 397.80 257.25 396.00 264.10 392.76 269.85 C 390.78 272.79 388.02 275.06 385.61 277.61 C 310.26 352.94 234.92 428.26 159.59 503.59 C 156.12 507.05 151.87 510.07 146.89 510.74 C 138.99 511.98 129.77 511.16 123.92 505.10 C 118.12 500.20 115.05 492.47 115.25 484.95 C 115.50 476.78 120.67 469.79 126.48 464.47 C 195.33 395.66 264.13 326.79 332.99 257.99 C 334.52 256.88 334.53 255.11 332.99 254.01 C 263.29 184.38 193.66 114.67 123.97 45.03 C 120.56 41.56 117.53 37.59 116.24 32.82 C 113.03 22.47 117.74 10.69 126.58 4.67 C 129.51 2.28 133.37 1.82 136.60 0.00 Z" />
</g>
</svg>
