<?xml version="1.0" encoding="UTF-8" ?>
<!DOCTYPE svg PUBLIC "-//W3C//DTD SVG 1.1//EN" "http://www.w3.org/Graphics/SVG/1.1/DTD/svg11.dtd">
<svg width="512pt" height="512pt" viewBox="0 0 512 512" version="1.1" xmlns="http://www.w3.org/2000/svg">
<g id="#787878ff">
<path fill="#787878" opacity="1.00" d=" M 138.64 0.00 L 140.02 0.00 C 141.15 0.11 143.39 0.34 144.52 0.45 L 144.43 1.50 C 150.05 0.78 155.03 4.40 159.01 7.94 C 235.70 84.62 312.39 161.30 389.08 237.98 C 394.78 243.45 396.91 251.65 396.49 259.33 L 395.46 259.47 C 396.09 265.49 392.23 271.03 388.07 275.04 C 312.55 350.54 237.04 426.05 161.53 501.55 C 156.92 506.50 150.74 511.44 143.56 510.52 C 143.50 510.89 143.39 511.63 143.34 512.00 L 140.85 512.00 C 138.28 510.11 134.67 511.45 132.25 509.73 C 126.12 508.15 121.31 503.22 118.34 497.78 C 116.15 492.66 114.19 486.63 116.31 481.16 C 116.71 475.80 120.18 471.43 123.51 467.48 C 192.69 398.32 261.85 329.16 331.02 260.00 C 332.12 259.03 332.91 257.41 334.57 257.36 C 334.58 256.67 334.59 255.31 334.60 254.63 C 334.19 254.47 333.38 254.16 332.97 254.00 C 263.03 183.94 192.94 114.02 122.98 43.97 C 117.76 38.34 114.80 30.63 115.58 22.95 C 116.53 17.64 118.50 12.28 122.45 8.45 C 126.54 4.15 132.35 0.57 138.51 1.50 C 138.54 1.13 138.61 0.38 138.64 0.00 Z" />
</g>
</svg>
