<?xml version="1.0" encoding="UTF-8" ?>
<!DOCTYPE svg PUBLIC "-//W3C//DTD SVG 1.1//EN" "http://www.w3.org/Graphics/SVG/1.1/DTD/svg11.dtd">
<svg width="1200pt" height="630pt" viewBox="0 0 1200 630" version="1.1" xmlns="http://www.w3.org/2000/svg">
<g id="#ffffffff">
<path fill="#ffffff" opacity="1.00" d=" M 340.25 138.30 C 345.92 136.17 352.74 137.72 357.51 141.44 C 360.15 143.80 362.63 146.33 365.12 148.85 C 442.99 226.70 520.84 304.57 598.70 382.42 C 599.56 383.26 600.43 383.26 601.30 382.42 C 679.32 304.40 757.34 226.38 835.36 148.36 C 840.00 143.61 844.93 138.03 852.01 137.50 C 854.55 137.59 857.47 136.94 859.76 138.30 C 862.84 139.03 865.54 140.88 867.90 142.95 C 877.48 152.43 886.95 162.03 896.52 171.54 C 903.18 177.17 907.21 186.68 903.48 195.09 C 901.75 198.62 899.13 201.59 896.34 204.30 C 802.29 298.26 708.35 392.34 614.25 486.25 C 607.03 494.70 592.98 494.63 585.71 486.28 C 494.81 395.53 404.05 304.63 313.19 213.83 C 308.96 209.44 304.43 205.35 300.38 200.80 C 295.78 196.01 293.70 188.60 296.08 182.28 C 296.96 178.90 299.24 176.14 301.48 173.54 C 310.50 164.54 319.52 155.52 328.53 146.50 C 331.87 143.10 335.43 139.43 340.25 138.30 Z" />
</g>
</svg>
